<svg id="SvgjsSvg1151" width="256" height="256" xmlns="http://www.w3.org/2000/svg" version="1.1"
    xmlns:xlink="http://www.w3.org/1999/xlink" xmlns:svgjs="http://svgjs.com/svgjs">
    <defs id="SvgjsDefs1152"></defs>
    <g id="SvgjsG1153"><svg xmlns="http://www.w3.org/2000/svg" viewBox="0 0 512 512" width="256" height="256">
            <g data-name="avatar woman people user profile 4" fill="#000000" class="color000 svgShape">
                <path fill="#3d3c3b"
                    d="M405.12 353.37c-14.158-43.973-9.507-45.524-2.263-86.72 4.7-26.728-1.576-58.62-8.952-81.446a216.895 216.895 0 0 1-10.042-54.134C381.701 93.919 362.173 32 256 32s-125.701 61.919-127.863 99.07a216.895 216.895 0 0 1-10.042 54.133c-7.376 22.826-13.65 54.718-8.951 81.447 7.243 41.195 11.895 42.747-2.264 86.72C78.813 440.543 128 448 128 448h256s49.187-7.457 21.12-94.63Z"
                    class="color3d3c3b svgShape"></path>
                <path fill="#f2a783"
                    d="M334.627 353.37H177.373a78.627 78.627 0 0 0-78.627 78.628c0 17.369 3.505 25.504 31.451 31.451 0 0 94.082 16.551 125.804 16.551s125.804-16.55 125.804-16.55c27.946-5.948 31.451-14.083 31.451-31.452a78.627 78.627 0 0 0-78.627-78.627Z"
                    class="colorf2a783 svgShape"></path>
                <path fill="#eaf5fb"
                    d="M334.627 353.37H177.373a78.319 78.319 0 0 0-31.77 6.706V466.07c107.422 17.883 113.302 17.895 220.794 0V360.076a78.319 78.319 0 0 0-31.77-6.705Z"
                    class="coloreaf5fb svgShape"></path>
                <path fill="#f2a783"
                    d="M256 410.547s-47.176-21.122-47.176-47.176V321.92h94.352v41.451c0 26.055-47.176 47.176-47.176 47.176Z"
                    class="colorf2a783 svgShape"></path>
                <path fill="#f08c74"
                    d="M208.823 353.17c12.92 5.95 28.387 9.636 47.177 9.636s34.257-3.686 47.176-9.637v-21.814h-94.353Z"
                    class="colorf08c74 svgShape"></path>
                <path fill="#f2a783"
                    d="M204.085 147.64a80.075 80.075 0 0 0-58.48 77.67c.068 8.571.231 16.145.54 21.28 1.97 32.752 22.937 102.372 109.855 102.372s107.886-69.62 109.855-102.373c.308-5.13.471-12.698.54-21.261a80.11 80.11 0 0 0-58.524-77.69c-18.401-5.181-36.02-11.971-45.246-20.428a9.853 9.853 0 0 0-13.253.003c-9.217 8.45-26.856 15.24-45.287 20.426Z"
                    class="colorf2a783 svgShape"></path>
                <circle cx="206.998" cy="193.985" r="15.876" fill="#3d3c3b" transform="rotate(-45 206.998 193.985)"
                    class="color3d3c3b svgShape"></circle>
                <circle cx="305.009" cy="193.985" r="15.876" fill="#3d3c3b" transform="rotate(-45 305.009 193.985)"
                    class="color3d3c3b svgShape"></circle>
            </g>
        </svg></g>
</svg>