<svg id="SvgjsSvg1034" width="256" height="256" xmlns="http://www.w3.org/2000/svg" version="1.1"
    xmlns:xlink="http://www.w3.org/1999/xlink" xmlns:svgjs="http://svgjs.com/svgjs">
    <defs id="SvgjsDefs1035"></defs>
    <g id="SvgjsG1036"><svg xmlns="http://www.w3.org/2000/svg" viewBox="0 0 512 512" width="256" height="256">
            <g data-name="avatar woman people user profile 7" fill="#000000" class="color000 svgShape">
                <path fill="#3d3c3b"
                    d="M392.376 388.09V211.126C392.376-11.597 256 41.978 256 41.978s-136.376-53.575-136.376 169.15v176.961Z"
                    class="color3d3c3b svgShape"></path>
                <path fill="#bd7768"
                    d="M334.627 353.37H177.373a78.627 78.627 0 0 0-78.627 78.628c0 17.369 3.505 25.504 31.451 31.451 0 0 94.082 16.551 125.804 16.551s125.804-16.55 125.804-16.55c27.946-5.948 31.451-14.083 31.451-31.452a78.627 78.627 0 0 0-78.627-78.627Z"
                    class="colorbd7768 svgShape"></path>
                <path fill="#755e7d"
                    d="M187.526 353.37c-3.926 23.8-3.522 31.254-26.667 59.845-17.625 21.772-20.77 39.788-19.7 52.11 25.686 4.326 89.52 14.635 114.694 14.674h.074L256 480c25.175-.04 89.009-10.349 114.695-14.674 1.07-12.323-2.076-30.34-19.7-52.11-23.146-28.592-22.742-36.046-26.668-59.845Z"
                    class="color755e7d svgShape"></path>
                <path fill="#bd7768"
                    d="M256 410.547s-47.176-21.122-47.176-47.176V321.92h94.352v41.451c0 26.055-47.176 47.176-47.176 47.176Z"
                    class="colorbd7768 svgShape"></path>
                <path fill="#b56959"
                    d="M208.823 353.17c12.92 5.95 28.387 9.636 47.177 9.636s34.257-3.686 47.176-9.637v-21.814h-94.353Z"
                    class="colorb56959 svgShape"></path>
                <path fill="#bd7768"
                    d="M204.085 147.64a80.075 80.075 0 0 0-58.48 77.67c.068 8.571.231 16.145.54 21.28 1.97 32.752 22.937 102.372 109.855 102.372s107.886-69.62 109.855-102.373c.308-5.13.471-12.698.54-21.261a80.11 80.11 0 0 0-58.524-77.69c-18.401-5.181-36.02-11.971-45.246-20.428a9.853 9.853 0 0 0-13.253.003c-9.217 8.45-26.856 15.24-45.287 20.426Z"
                    class="colorbd7768 svgShape"></path>
                <circle cx="206.998" cy="193.985" r="15.876" fill="#3d3c3b" transform="rotate(-45 206.998 193.985)"
                    class="color3d3c3b svgShape"></circle>
                <circle cx="305.009" cy="193.985" r="15.876" fill="#3d3c3b" transform="rotate(-45 305.009 193.985)"
                    class="color3d3c3b svgShape"></circle>
            </g>
        </svg></g>
</svg>