<svg id="SvgjsSvg1106" width="256" height="256" xmlns="http://www.w3.org/2000/svg" version="1.1"
    xmlns:xlink="http://www.w3.org/1999/xlink" xmlns:svgjs="http://svgjs.com/svgjs">
    <defs id="SvgjsDefs1107"></defs>
    <g id="SvgjsG1108"><svg xmlns="http://www.w3.org/2000/svg" viewBox="0 0 512 512" width="256" height="256">
            <g data-name="avatar woman people user profile businesswoman suit profession ceo" fill="#000000"
                class="color000 svgShape">
                <path fill="#3d3c3b"
                    d="M395.173 394.78C448.478 140.248 353.422 32.099 255.544 32c-97.878.099-191.884 108.248-138.579 362.78Z"
                    class="color3d3c3b svgShape"></path>
                <path fill="#2d2c29"
                    d="M126.868 361.406a30 30 0 0 0-28.123 29.942v40.65c0 17.368 3.505 25.504 31.451 31.45 0 0 94.082 16.552 125.804 16.552s125.804-16.551 125.804-16.551c27.946-5.947 31.451-14.083 31.451-31.451v-40.65a30 30 0 0 0-28.123-29.942l-129.117-8.095Z"
                    class="color2d2c29 svgShape"></path>
                <path fill="#353432"
                    d="M320.907 353.37H191.122s-29.742 9.438-25.457 45.914c1.907 16.229 20.001 46.864 39.501 75.875C225.316 477.881 244.65 480 256 480c11.356 0 30.704-2.121 50.866-4.845 19.499-29.01 37.592-59.643 39.498-75.87 4.285-36.477-25.457-45.914-25.457-45.914Z"
                    class="color353432 svgShape"></path>
                <path fill="#eaf6fc"
                    d="M212.363 416c4.391 13.634 20.703 43.454 32.088 63.513 4.389.311 8.3.487 11.549.487s7.16-.176 11.55-.487c11.384-20.059 27.696-49.88 32.088-63.513h-87.275Z"
                    class="coloreaf6fc svgShape"></path>
                <path fill="#ffffff" d="M251 479.888c1.798.073 3.473.112 5 .112s3.201-.04 5-.112V406h-10Z"
                    class="colorfff svgShape"></path>
                <path fill="#ffffff"
                    d="M303.177 353.17c16.676 38.21-17.835 92.23-17.835 92.23L256 416l-29.343 29.4s-34.51-54.02-17.834-92.23Z"
                    class="colorfff svgShape"></path>
                <path fill="#ffd5b3" d="m256 416 47.177-62.629V321.92h-94.354v31.451L256 416z"
                    class="colorffd5b3 svgShape"></path>
                <path fill="#f4bda2"
                    d="M208.823 353.17c12.92 5.95 28.387 9.636 47.177 9.636s34.257-3.686 47.176-9.637v-21.814h-94.353Z"
                    class="colorf4bda2 svgShape"></path>
                <path fill="#ffd5b3"
                    d="M146.145 159.67s-1.304 65.229 0 86.92c1.97 32.752 22.937 102.372 109.855 102.372s107.886-69.62 109.855-102.373c1.304-21.69 0-86.92 0-86.92-18.53-2.734-80.55-13.06-102.287-31.624a11.706 11.706 0 0 0-15.136 0c-21.657 18.496-83.504 28.844-102.287 31.625Z"
                    class="colorffd5b3 svgShape"></path>
                <circle cx="206.998" cy="193.985" r="15.876" fill="#3d3c3b" transform="rotate(-45 206.998 193.985)"
                    class="color3d3c3b svgShape"></circle>
                <circle cx="305.009" cy="193.985" r="15.876" fill="#3d3c3b" transform="rotate(-45 305.009 193.985)"
                    class="color3d3c3b svgShape"></circle>
            </g>
        </svg></g>
</svg>