<svg id="SvgjsSvg1019" width="256" height="256" xmlns="http://www.w3.org/2000/svg" version="1.1"
    xmlns:xlink="http://www.w3.org/1999/xlink" xmlns:svgjs="http://svgjs.com/svgjs">
    <defs id="SvgjsDefs1020"></defs>
    <g id="SvgjsG1021"><svg xmlns="http://www.w3.org/2000/svg" viewBox="0 0 512 512" width="256" height="256">
            <g data-name="avatar man people user profile 3" fill="#000000" class="color000 svgShape">
                <path fill="#eaf5fb"
                    d="M334.627 353.37H177.373a78.627 78.627 0 0 0-78.627 78.628c0 17.369 3.505 25.504 31.451 31.451 0 0 94.082 16.551 125.804 16.551s125.804-16.55 125.804-16.55c27.946-5.948 31.451-14.083 31.451-31.452a78.627 78.627 0 0 0-78.627-78.627Z"
                    class="coloreaf5fb svgShape"></path>
                <path fill="#ffcc73"
                    d="M197.892 353.37h-20.52a78.627 78.627 0 0 0-78.627 78.628c0 17.369 3.505 25.504 31.451 31.451 0 0 33.79 5.944 67.696 10.707zm116.216 0h20.52a78.627 78.627 0 0 1 78.627 78.628c0 17.369-3.505 25.504-31.45 31.451 0 0-33.79 5.944-67.697 10.708z"
                    class="colorffcc73 svgShape"></path>
                <path fill="#ffb476" d="m163.322 405.374 5.262 9.812v54.599-54.599l-5.262-9.812z"
                    class="colorffb476 svgShape"></path>
                <path fill="#ffb476"
                    d="m208.813 353.37-.087 46.407zm-56.842 30.842 16.613 30.974v54.6c12.426 1.947 26.49 4.044 40 5.83l.267-142.37zm208.058 0-16.614 30.974v54.6c-12.425 1.947-26.49 4.044-40 5.83l-.266-142.37z"
                    class="colorffb476 svgShape"></path>
                <path fill="#bd7768"
                    d="M256 400.547a47.176 47.176 0 0 1-47.176-47.176V321.92h94.352v31.451A47.176 47.176 0 0 1 256 400.547Z"
                    class="colorbd7768 svgShape"></path>
                <path fill="#b56959"
                    d="M208.823 353.17c12.92 5.95 28.387 9.636 47.177 9.636s34.257-3.686 47.176-9.637v-21.814h-94.353Z"
                    class="colorb56959 svgShape"></path>
                <path fill="#3d3c3b"
                    d="M416 160c0 88.366-71.634 96-160 96s-160-7.634-160-96S167.634 14.63 256 14.63 416 71.634 416 160Z"
                    class="color3d3c3b svgShape"></path>
                <path fill="#bd7768"
                    d="M364.843 252.437a7.93 7.93 0 0 1 6.51-6.507 31.73 31.73 0 0 0 26.177-30.944v-23.588a31.736 31.736 0 0 0-26.36-30.976 8.012 8.012 0 0 1-6.477-6.178 63.114 63.114 0 0 0-61.516-49.336h-94.353a63.114 63.114 0 0 0-61.516 49.336 8.012 8.012 0 0 1-6.476 6.178 31.736 31.736 0 0 0-26.361 30.976v23.588a31.73 31.73 0 0 0 26.176 30.944 7.93 7.93 0 0 1 6.51 6.507c5.506 34.359 27.08 96.215 108.843 96.215s103.337-61.856 108.843-96.215Z"
                    class="colorbd7768 svgShape"></path>
                <circle cx="207.651" cy="195.812" r="15.664" fill="#3d3c3b" transform="rotate(-45 207.65 195.812)"
                    class="color3d3c3b svgShape"></circle>
                <circle cx="304.356" cy="195.812" r="15.664" fill="#3d3c3b" transform="rotate(-45 304.356 195.812)"
                    class="color3d3c3b svgShape"></circle>
            </g>
        </svg></g>
</svg>