<svg id="SvgjsSvg1195" width="256" height="256" xmlns="http://www.w3.org/2000/svg" version="1.1"
    xmlns:xlink="http://www.w3.org/1999/xlink" xmlns:svgjs="http://svgjs.com/svgjs">
    <defs id="SvgjsDefs1196"></defs>
    <g id="SvgjsG1197"><svg xmlns="http://www.w3.org/2000/svg" viewBox="0 0 512 512" width="256" height="256">
            <g data-name="avatar man people user profile 2" fill="#000000" class="color000 svgShape">
                <path fill="#eaf5fb"
                    d="M334.627 353.37H177.373a78.627 78.627 0 0 0-78.627 78.628c0 17.369 3.505 25.504 31.451 31.451 0 0 94.082 16.551 125.804 16.551s125.804-16.55 125.804-16.55c27.946-5.948 31.451-14.083 31.451-31.452a78.627 78.627 0 0 0-78.627-78.627Z"
                    class="coloreaf5fb svgShape"></path>
                <path fill="#ffd5b3"
                    d="M256 400.547a47.176 47.176 0 0 1-47.176-47.176V321.92h94.352v31.451A47.176 47.176 0 0 1 256 400.547Z"
                    class="colorffd5b3 svgShape"></path>
                <path fill="#f4bda2"
                    d="M208.823 353.17c12.92 5.95 28.387 9.636 47.177 9.636s34.257-3.686 47.176-9.637v-21.814h-94.353Z"
                    class="colorf4bda2 svgShape"></path>
                <path fill="#3d3c3b"
                    d="M360.417 83.561C266.778 12.7 262.29 16.968 256 16.968c-6.442 0-10.982-4.114-104.417 66.593-18.457 13.968-12.97 83.328-12.97 83.328h234.774s5.487-69.36-12.97-83.328Z"
                    class="color3d3c3b svgShape"></path>
                <path fill="#ffd5b3"
                    d="M364.843 252.437a7.93 7.93 0 0 1 6.51-6.507 31.73 31.73 0 0 0 26.177-30.944v-23.588a31.736 31.736 0 0 0-26.36-30.976 8.012 8.012 0 0 1-6.477-6.178 63.114 63.114 0 0 0-61.516-49.336h-94.353a63.114 63.114 0 0 0-61.516 49.336 8.012 8.012 0 0 1-6.476 6.178 31.736 31.736 0 0 0-26.361 30.976v23.588a31.73 31.73 0 0 0 26.176 30.944 7.93 7.93 0 0 1 6.51 6.507c5.506 34.359 27.08 96.215 108.843 96.215s103.337-61.856 108.843-96.215Z"
                    class="colorffd5b3 svgShape"></path>
                <circle cx="207.651" cy="195.812" r="15.664" fill="#3d3c3b" transform="rotate(-45 207.65 195.812)"
                    class="color3d3c3b svgShape"></circle>
                <circle cx="304.356" cy="195.812" r="15.664" fill="#3d3c3b" transform="rotate(-45 304.356 195.812)"
                    class="color3d3c3b svgShape"></circle>
                <path fill="#f4698e"
                    d="M164.555 354.427a78.636 78.636 0 0 0-65.81 77.571c0 17.369 3.505 25.504 31.451 31.451 0 0 14.663 2.58 34.36 5.7zm182.89 0a78.636 78.636 0 0 1 65.81 77.571c0 17.369-3.505 25.504-31.451 31.451 0 0-14.663 2.58-34.36 5.7z"
                    class="colorf4698e svgShape"></path>
                <path fill="#e55c86"
                    d="M154.555 467.544c6.008.978 12.8 2.06 20 3.168v-117.27a78.471 78.471 0 0 0-20 3.303zm202.89 0c-6.008.978-12.8 2.06-20 3.168v-117.27a78.471 78.471 0 0 1 20 3.303z"
                    class="colore55c86 svgShape"></path>
            </g>
        </svg></g>
</svg>