<svg xmlns="http://www.w3.org/2000/svg" viewBox="0 0 512 512" id="african-girl">
    <g data-name="avatar woman people user profile 5">
        <path fill="#3d3c3b"
            d="M448 180.659c0 88.365-85.961 160-192 160s-192-71.635-192-160 85.961-150 192-150 192 61.634 192 150Z">
        </path>
        <path fill="#bd7768"
            d="M334.627 353.37h-31.45v-31.45h-94.354v31.45h-31.45a78.627 78.627 0 0 0-78.628 78.628c0 17.369 3.505 25.504 31.451 31.451 0 0 94.082 16.551 125.804 16.551s125.804-16.551 125.804-16.551c27.946-5.947 31.451-14.082 31.451-31.451a78.627 78.627 0 0 0-78.628-78.627Z">
        </path>
        <path fill="#b56959"
            d="M208.823 353.17c12.92 5.95 28.387 9.636 47.177 9.636s34.257-3.686 47.176-9.637v-21.814h-94.353Z"></path>
        <path fill="#bd7768"
            d="M145.97 243.049C150.402 351.246 252.007 348.962 256 348.962c93.897 0 108.678-80.152 109.914-103.421 8.544-160.768-226.76-168.844-219.944-2.492Z">
        </path>
        <circle cx="206.998" cy="193.985" r="15.876" fill="#3d3c3b" transform="rotate(-45 206.998 193.985)"></circle>
        <circle cx="305.009" cy="193.985" r="15.876" fill="#3d3c3b" transform="rotate(-45 305.009 193.985)"></circle>
        <path fill="#aec896"
            d="m161.663 354.944 7.442 69.906 10.032-1.089-7.552-70.155a78.682 78.682 0 0 0-9.922 1.338zm178.793-1.336-7.552 70.153 10.032 1.089 7.441-69.9a78.693 78.693 0 0 0-9.92-1.342z">
        </path>
        <path fill="#aec896"
            d="M255.838 480c20.133 0 65.377-6.666 95.754-11.537 1.281-12.06 2.358-22.263 3.254-30.799a18.998 18.998 0 0 0-26.584-19.357c-21.498 9.508-48.871 21.2-72.343 29.693-23.471-8.493-50.844-20.185-72.342-29.692a18.998 18.998 0 0 0-26.585 19.356c.897 8.536 1.973 18.74 3.255 30.8C190.623 473.333 235.867 480 256 480Z">
        </path>
    </g>
</svg>