<svg xmlns="http://www.w3.org/2000/svg" version="1.1" xmlns:xlink="http://www.w3.org/1999/xlink" width="512"
    height="512" x="0" y="0" viewBox="0 0 24 24" style="enable-background:new 0 0 512 512" xml:space="preserve"
    class="">
    <g>
        <path
            d="M6.5 13h-5a1.5 1.5 0 0 1 0-3h5a1.5 1.5 0 0 1 0 3ZM18.5 13h-7a1.5 1.5 0 0 1 0-3h7A2.5 2.5 0 0 0 21 7.468a2.031 2.031 0 0 0-1.656-1.941A2 2 0 0 0 17 7.5 1.5 1.5 0 0 1 15.5 9c-2.767-.318-1.178-4.225.26-5.308A5 5 0 0 1 24 7.431 5.5 5.5 0 0 1 18.5 13ZM7 8H1.5a1.5 1.5 0 0 1 0-3H7a1.069 1.069 0 0 0 1.075-.777.982.982 0 0 0-.208-.818 1.158 1.158 0 0 0-1.681.088A1.5 1.5 0 1 1 3.859 1.6a4.125 4.125 0 0 1 6.307-.116 3.989 3.989 0 0 1 .858 3.275A4.031 4.031 0 0 1 7 8ZM15.585 24.008a4.832 4.832 0 0 1-3.709-1.752 1.5 1.5 0 0 1 2.323-1.9 1.736 1.736 0 0 0 2.542.11 1.508 1.508 0 0 0 .322-1.256A1.606 1.606 0 0 0 15.438 18H1.5a1.5 1.5 0 0 1 0-3h13.938a4.577 4.577 0 0 1 4.577 3.678 4.506 4.506 0 0 1-4.43 5.33Z"
            fill="currentColor" opacity="1" data-original="currentColor"></path>
    </g>
</svg>