<svg xmlns="http://www.w3.org/2000/svg" version="1.1" xmlns:xlink="http://www.w3.org/1999/xlink" width="512"
    height="512" x="0" y="0" viewBox="0 0 24 24" style="enable-background:new 0 0 512 512" xml:space="preserve">
    <g>
        <path
            d="M12 0a12 12 0 1 0 12 12A12.013 12.013 0 0 0 12 0Zm0 20a1 1 0 1 1 1-1 1 1 0 0 1-1 1Zm1.93-7.494a1.982 1.982 0 0 0-.93 1.751V15a1 1 0 0 1-2 0v-.743a3.954 3.954 0 0 1 1.964-3.5 2 2 0 0 0 1-2.125 2.024 2.024 0 0 0-1.6-1.595A2 2 0 0 0 10 9a1 1 0 0 1-2 0 4 4 0 1 1 5.93 3.505Z"
            fill="currentColor" opacity="1" data-original="currentColor"></path>
    </g>
</svg>