<svg xmlns="http://www.w3.org/2000/svg" version="1.1" xmlns:xlink="http://www.w3.org/1999/xlink" width="512"
    height="512" x="0" y="0" viewBox="0 0 24 24" style="enable-background:new 0 0 512 512" xml:space="preserve"
    class="">
    <g>
        <path
            d="M23.707 23.707a.999.999 0 0 1-1.414.001l-21.999-22A1 1 0 1 1 1.708.293l11.293 11.313V6.001a2 2 0 1 1 4 0v9.598l2 1.996V2a2 2 0 1 1 4 0v19.588l.705.705a1 1 0 0 1 .002 1.414ZM3 17a2 2 0 0 0-2 2v3a2 2 0 1 0 4 0v-3a2 2 0 0 0-2-2Zm6 7a2 2 0 0 0 2-2v-6.739l-4-3.993v10.731a2 2 0 0 0 2 2Zm6 0a2 2 0 0 0 2-2v-.749l-4-3.993V22a2 2 0 0 0 2 2Z"
            fill="currentColor" opacity="1" data-original="currentColor" class=""></path>
    </g>
</svg>