<svg id="SvgjsSvg1164" width="256" height="256" xmlns="http://www.w3.org/2000/svg" version="1.1"
    xmlns:xlink="http://www.w3.org/1999/xlink" xmlns:svgjs="http://svgjs.com/svgjs">
    <defs id="SvgjsDefs1165"></defs>
    <g id="SvgjsG1166"><svg xmlns="http://www.w3.org/2000/svg" viewBox="0 0 512 512" width="256" height="256">
            <g data-name="avatar man people user profile worker profession" fill="#000000" class="color000 svgShape">
                <path fill="#3d3c3b"
                    d="M256 32c-113.973 3.156-128 72.742-128 150.794h256C384 104.742 369.973 35.156 256 32"
                    class="color3d3c3b svgShape"></path>
                <path fill="#eaf6fc"
                    d="M334.627 353.37H177.373a78.627 78.627 0 0 0-78.627 78.628c0 17.369 3.505 25.504 31.451 31.451 0 0 94.082 16.551 125.804 16.551s125.804-16.55 125.804-16.55c27.946-5.948 31.451-14.083 31.451-31.452a78.627 78.627 0 0 0-78.627-78.627Z"
                    class="coloreaf6fc svgShape"></path>
                <path fill="#3d3c3b"
                    d="M256 480c5.374 0 12.54-.476 20.732-1.265L261 414.986h-10l-15.732 63.75C243.46 479.523 250.626 480 256 480Z"
                    class="color3d3c3b svgShape"></path>
                <circle cx="256" cy="415.994" r="15.447" fill="#3d3c3b" class="color3d3c3b svgShape"></circle>
                <path fill="#ffffff"
                    d="M303.177 353.17c16.676 38.21-17.834 76.776-17.834 76.776L256 400.547l-29.343 29.4s-34.51-38.568-17.834-76.778Z"
                    class="colorfff svgShape"></path>
                <path fill="#ffc5b9" d="m256 400.547 47.177-47.176V321.92h-94.354v31.451L256 400.547z"
                    class="colorffc5b9 svgShape"></path>
                <path fill="#f7a398"
                    d="M208.823 353.17c12.92 5.95 28.387 9.636 47.177 9.636s34.257-3.686 47.176-9.637v-21.814h-94.353Z"
                    class="colorf7a398 svgShape"></path>
                <path fill="#ffc5b9"
                    d="M364.843 252.437a7.93 7.93 0 0 1 6.51-6.507 31.73 31.73 0 0 0 26.177-30.944v-23.588a31.736 31.736 0 0 0-26.36-30.976 8.012 8.012 0 0 1-6.477-6.178 63.114 63.114 0 0 0-61.516-49.336h-94.353a63.114 63.114 0 0 0-61.516 49.336 8.012 8.012 0 0 1-6.476 6.178 31.736 31.736 0 0 0-26.361 30.976v23.588a31.73 31.73 0 0 0 26.176 30.944 7.93 7.93 0 0 1 6.51 6.507c5.506 34.359 27.08 96.215 108.843 96.215s103.337-61.856 108.843-96.215Z"
                    class="colorffc5b9 svgShape"></path>
                <circle cx="207.651" cy="195.812" r="15.664" fill="#3d3c3b" transform="rotate(-45 207.65 195.812)"
                    class="color3d3c3b svgShape"></circle>
                <circle cx="304.356" cy="195.812" r="15.664" fill="#3d3c3b" transform="rotate(-45 304.356 195.812)"
                    class="color3d3c3b svgShape"></circle>
            </g>
        </svg></g>
</svg>