<svg id="SvgjsSvg1266" width="256" height="256" xmlns="http://www.w3.org/2000/svg" version="1.1"
    xmlns:xlink="http://www.w3.org/1999/xlink" xmlns:svgjs="http://svgjs.com/svgjs">
    <defs id="SvgjsDefs1267"></defs>
    <g id="SvgjsG1268"><svg xmlns="http://www.w3.org/2000/svg" viewBox="0 0 512 512" width="256" height="256">
            <g data-name="avatar woman people user profile" fill="#000000" class="color000 svgShape">
                <path fill="#fd9dd8"
                    d="M334.6275,353.3705H177.3725A78.6272,78.6272,0,0,0,98.745,431.9981c0,17.3687,3.5052,25.504,31.451,31.451,0,0,94.0823,16.5509,125.804,16.5509s125.804-16.5509,125.804-16.5509c27.9458-5.947,31.451-14.0823,31.451-31.451A78.6272,78.6272,0,0,0,334.6275,353.3705Z"
                    class="colorfd9dd8 svgShape"></path>
                <path fill="#3d3c3b"
                    d="M240.25,32H271.75c52.19,0,89.4789,42.55,94.4979,94.498,6.0823,62.9516,39.75,133.7871,0,182.979-34.6458,42.8754-181.5168,38.9784-220.4952,0-44.7208-44.7208-6.6765-120.0877,0-182.979C151.2618,74.6,188.0605,32,240.25,32Z"
                    class="color3d3c3b svgShape"></path>
                <path fill="#ffd5b3"
                    d="M256,400.5471a47.1765,47.1765,0,0,1-47.1765-47.1765V321.92h94.353v31.451A47.1765,47.1765,0,0,1,256,400.5471Z"
                    class="colorffd5b3 svgShape"></path>
                <path fill="#f4bda2"
                    d="M208.8235,353.1694c12.92,5.9508,28.3863,9.6365,47.1765,9.6365s34.2565-3.6857,47.1765-9.6365V331.3549h-94.353Z"
                    class="colorf4bda2 svgShape"></path>
                <path fill="#ffd5b3"
                    d="M371.3458,160.4415s-82.1157-10.48-107.7774-32.3965a11.7062,11.7062,0,0,0-15.1368,0c-25.6617,21.9168-107.7774,32.3965-107.7774,32.3965a31.785,31.785,0,0,0-26.4012,31.0237V215.09A31.78,31.78,0,0,0,140.47,246.0817a7.942,7.942,0,0,1,6.52,6.5168C152.504,287.01,174.1121,348.962,256,348.962S359.496,287.01,365.0107,252.5985a7.9418,7.9418,0,0,1,6.52-6.5168A31.78,31.78,0,0,0,397.747,215.09V191.4652A31.785,31.785,0,0,0,371.3458,160.4415Z"
                    class="colorffd5b3 svgShape"></path>
                <circle cx="206.998" cy="193.985" r="15.876" fill="#3d3c3b" transform="rotate(-45 206.998 193.985)"
                    class="color3d3c3b svgShape"></circle>
                <circle cx="305.009" cy="193.985" r="15.876" fill="#3d3c3b" transform="rotate(-45 305.009 193.985)"
                    class="color3d3c3b svgShape"></circle>
            </g>
        </svg></g>
</svg>