<svg id="SvgjsSvg1136" width="256" height="256" xmlns="http://www.w3.org/2000/svg" version="1.1"
    xmlns:xlink="http://www.w3.org/1999/xlink" xmlns:svgjs="http://svgjs.com/svgjs">
    <defs id="SvgjsDefs1137"></defs>
    <g id="SvgjsG1138"><svg xmlns="http://www.w3.org/2000/svg" viewBox="0 0 512 512" width="256" height="256">
            <g data-name="avatar woman people user profile 8" fill="#000000" class="color000 svgShape">
                <path fill="#ffc5b9"
                    d="M334.627 353.37H177.373a78.627 78.627 0 0 0-78.627 78.628c0 17.369 3.505 25.504 31.451 31.451 0 0 94.082 16.551 125.804 16.551s125.804-16.55 125.804-16.55c27.946-5.948 31.451-14.083 31.451-31.452a78.627 78.627 0 0 0-78.627-78.627Z"
                    class="colorffc5b9 svgShape"></path>
                <path fill="#e26189"
                    d="M187.526 353.37c-3.926 23.8-3.522 31.254-26.667 59.845-17.625 21.772-20.77 39.788-19.7 52.11 25.686 4.326 89.52 14.635 114.694 14.674h.074L256 480c25.175-.04 89.009-10.349 114.695-14.674 1.07-12.323-2.076-30.34-19.7-52.11-23.146-28.592-22.742-36.046-26.668-59.845Z"
                    class="colore26189 svgShape"></path>
                <path fill="#3d3c3b" d="M201.34 74.591a53.396 53.396 0 1 1 106.79 0Z" class="color3d3c3b svgShape">
                </path>
                <path fill="#e26189" d="M201.34 94.095a53.396 53.396 0 0 1 106.79 0Z" class="colore26189 svgShape">
                </path>
                <path fill="#3d3c3b"
                    d="M240.25 62h31.5c52.19 0 89.479 22.55 94.498 74.498 6.082 62.952 39.75 103.787 0 152.979-34.646 42.875-181.517 38.978-220.495 0-44.721-44.72-6.677-90.088 0-152.979C151.262 84.6 188.06 62 240.25 62Z"
                    class="color3d3c3b svgShape"></path>
                <path fill="#ffc5b9"
                    d="M256 400.547a47.176 47.176 0 0 1-47.176-47.176V321.92h94.352v31.451A47.176 47.176 0 0 1 256 400.547Z"
                    class="colorffc5b9 svgShape"></path>
                <path fill="#f7a398"
                    d="M208.823 353.17c12.92 5.95 28.387 9.636 47.177 9.636s34.257-3.686 47.176-9.637v-21.814h-94.353Z"
                    class="colorf7a398 svgShape"></path>
                <path fill="#ffc5b9"
                    d="M371.346 160.441s-82.116-10.48-107.778-32.396a11.706 11.706 0 0 0-15.136 0c-25.662 21.917-107.778 32.397-107.778 32.397a31.785 31.785 0 0 0-26.401 31.023v23.625a31.78 31.78 0 0 0 26.217 30.992 7.942 7.942 0 0 1 6.52 6.517c5.514 34.411 27.122 96.363 109.01 96.363s103.496-61.952 109.01-96.363a7.942 7.942 0 0 1 6.52-6.517 31.78 31.78 0 0 0 26.217-30.992v-23.625a31.785 31.785 0 0 0-26.401-31.024Z"
                    class="colorffc5b9 svgShape"></path>
                <circle cx="206.998" cy="193.985" r="15.876" fill="#3d3c3b" transform="rotate(-45 206.998 193.985)"
                    class="color3d3c3b svgShape"></circle>
                <circle cx="305.009" cy="193.985" r="15.876" fill="#3d3c3b" transform="rotate(-45 305.009 193.985)"
                    class="color3d3c3b svgShape"></circle>
            </g>
        </svg></g>
</svg>