<svg id="SvgjsSvg1059" width="256" height="256" xmlns="http://www.w3.org/2000/svg" version="1.1"
    xmlns:xlink="http://www.w3.org/1999/xlink" xmlns:svgjs="http://svgjs.com/svgjs">
    <defs id="SvgjsDefs1060"></defs>
    <g id="SvgjsG1061"><svg xmlns="http://www.w3.org/2000/svg" viewBox="0 0 512 512" width="256" height="256">
            <g data-name="avatar woman people user profile 6" fill="#000000" class="color000 svgShape">
                <path fill="#ffbec5"
                    d="M334.627 353.37H177.373a78.627 78.627 0 0 0-78.627 78.628c0 17.369 3.505 25.504 31.451 31.451 0 0 94.082 16.551 125.804 16.551s125.804-16.55 125.804-16.55c27.946-5.948 31.451-14.083 31.451-31.452a78.627 78.627 0 0 0-78.627-78.627Z"
                    class="colorffbec5 svgShape"></path>
                <path fill="#a9a9db"
                    d="M334.627 353.37H177.373a78.43 78.43 0 0 0-59.703 27.494c20.577 8.306 43.943 30.563 46.925 88.292C194.794 473.942 236.808 480 256 480c18.67 0 58.935-5.732 88.914-10.45 2.982-59.77 27.75-81.67 48.8-89.398a78.419 78.419 0 0 0-59.087-26.781Z"
                    class="colora9a9db svgShape"></path>
                <path fill="#ffbec5"
                    d="M256 420.547s-47.176-21.122-47.176-47.176V321.92h94.352v51.451c0 26.055-47.176 47.176-47.176 47.176Z"
                    class="colorffbec5 svgShape"></path>
                <path fill="#ff9aa0"
                    d="M208.823 353.17c12.92 5.95 28.387 9.636 47.177 9.636s34.257-3.686 47.176-9.637v-21.814h-94.353Z"
                    class="colorff9aa0 svgShape"></path>
                <path fill="#ffe9c8"
                    d="M255.891 288.39c43.317 3.748 250.645 32.343 158.676-120.965-9.363-15.605-9.278-116.77-105.384-135.992-32.795-6.559-53.292 14.868-53.292 14.868S235.395 24.874 202.6 31.433C106.494 50.654 106.58 151.82 97.216 167.426 5.246 320.734 212.575 292.138 255.891 288.39Z"
                    class="colorffe9c8 svgShape"></path>
                <path fill="#ffbec5"
                    d="M204.085 147.64a80.075 80.075 0 0 0-58.48 77.67c.068 8.571.231 16.145.54 21.28 1.97 32.752 22.937 102.372 109.855 102.372s107.886-69.62 109.855-102.373c.308-5.13.471-12.698.54-21.261a80.11 80.11 0 0 0-58.524-77.69c-18.401-5.181-36.02-11.971-45.246-20.428a9.853 9.853 0 0 0-13.253.003c-9.217 8.45-26.856 15.24-45.287 20.426Z"
                    class="colorffbec5 svgShape"></path>
                <circle cx="206.998" cy="193.985" r="15.876" fill="#3d3c3b" transform="rotate(-45 206.998 193.985)"
                    class="color3d3c3b svgShape"></circle>
                <circle cx="305.009" cy="193.985" r="15.876" fill="#3d3c3b" transform="rotate(-45 305.009 193.985)"
                    class="color3d3c3b svgShape"></circle>
            </g>
        </svg></g>
</svg>