<svg id="SvgjsSvg1122" width="256" height="256" xmlns="http://www.w3.org/2000/svg" version="1.1"
    xmlns:xlink="http://www.w3.org/1999/xlink" xmlns:svgjs="http://svgjs.com/svgjs">
    <defs id="SvgjsDefs1123"></defs>
    <g id="SvgjsG1124"><svg xmlns="http://www.w3.org/2000/svg" viewBox="0 0 512 512" width="256" height="256">
            <g data-name="avatar woman people user profile worker profession" fill="#000000" class="color000 svgShape">
                <path fill="#bd948a"
                    d="M107.6748,404.78c34.484-58.9132,23.6568-155.3253,26.4882-207.1642C141.4415,64.3576,179.018,32.0686,256,32c76.982.0686,114.5585,32.3576,121.837,165.6153,2.8314,51.8389-7.9958,148.251,26.4882,207.1642C207.0705,403.3631,302.1,403.3834,107.6748,404.78Z"
                    class="colorbd948a svgShape"></path>
                <path fill="#2d2c29"
                    d="M334.6275,353.3705H177.3725A78.6272,78.6272,0,0,0,98.745,431.9981c0,17.3687,3.5052,25.504,31.451,31.451,0,0,94.0823,16.5509,125.804,16.5509s125.804-16.5509,125.804-16.5509c27.9458-5.947,31.451-14.0823,31.451-31.451A78.6272,78.6272,0,0,0,334.6275,353.3705Z"
                    class="color2d2c29 svgShape"></path>
                <path fill="#ffffff"
                    d="M256,480c3.79,0,8.4771-.2383,13.78-.6543V382.9526H242.22v96.3931C247.5229,479.7617,252.21,480,256,480Z"
                    class="colorfff svgShape"></path>
                <path fill="#ffffff"
                    d="M303.1766,353.1694c16.6768,38.21-17.8341,92.23-17.8341,92.23L256,416l-29.3425,29.3991s-34.5108-54.02-17.834-92.23Z"
                    class="colorfff svgShape"></path>
                <path fill="#ffc5b9"
                    d="M256,400.5471s-47.1765-21.1216-47.1765-47.1765V321.92h94.353v31.451C303.1765,379.4255,256,400.5471,256,400.5471Z"
                    class="colorffc5b9 svgShape"></path>
                <path fill="#f7a398"
                    d="M208.8235,353.1694c12.92,5.9508,28.3863,9.6365,47.1765,9.6365s34.2565-3.6857,47.1765-9.6365V331.3549h-94.353Z"
                    class="colorf7a398 svgShape"></path>
                <path fill="#ffc5b9"
                    d="M371.3458,160.4414S322.4051,96.333,256,96.333s-115.3459,64.1084-115.3459,64.1084a31.7849,31.7849,0,0,0-26.4011,31.0239V215.09a31.7794,31.7794,0,0,0,26.2166,30.992,7.9415,7.9415,0,0,1,6.52,6.5166C152.504,287.01,174.1121,348.9619,256,348.9619S359.496,287.01,365.0106,252.5984a7.9415,7.9415,0,0,1,6.52-6.5166A31.78,31.78,0,0,0,397.747,215.09V191.4653A31.7849,31.7849,0,0,0,371.3458,160.4414Z"
                    class="colorffc5b9 svgShape"></path>
                <circle cx="206.998" cy="193.985" r="15.876" fill="#3d3c3b" transform="rotate(-45 206.998 193.985)"
                    class="color3d3c3b svgShape"></circle>
                <circle cx="305.009" cy="193.985" r="15.876" fill="#3d3c3b" transform="rotate(-45 305.009 193.985)"
                    class="color3d3c3b svgShape"></circle>
            </g>
        </svg></g>
</svg>