<svg id="SvgjsSvg1089" width="256" height="256" xmlns="http://www.w3.org/2000/svg" version="1.1"
    xmlns:xlink="http://www.w3.org/1999/xlink" xmlns:svgjs="http://svgjs.com/svgjs">
    <defs id="SvgjsDefs1090"></defs>
    <g id="SvgjsG1091"><svg xmlns="http://www.w3.org/2000/svg" viewBox="0 0 512 512" width="256" height="256">
            <g data-name="avatar man people user profile businessman suit profession ceo 2" fill="#000000"
                class="color000 svgShape">
                <path fill="#3d3c3b"
                    d="M256 32c-113.973 3.156-128 72.742-128 150.794h256C384 104.742 369.973 35.156 256 32"
                    class="color3d3c3b svgShape"></path>
                <path fill="#363544"
                    d="M126.868 361.406a30 30 0 0 0-28.123 29.942v40.65c0 17.368 3.505 25.504 31.451 31.45 0 0 94.082 16.552 125.804 16.552s125.804-16.551 125.804-16.551c27.946-5.947 31.451-14.083 31.451-31.451v-40.65a30 30 0 0 0-28.123-29.942l-129.117-8.095Z"
                    class="color363544 svgShape"></path>
                <path fill="#cce2ea" d="M208.823 353.169h94.354v43.141L256 479.966l-47.177-79.419v-47.378z"
                    class="colorcce2ea svgShape"></path>
                <path fill="#494859" d="M261 414.986h-10l-11.989 48.274L256 480l16.989-16.74Z"
                    class="color494859 svgShape"></path>
                <circle cx="256" cy="415.994" r="15.447" fill="#494859" class="color494859 svgShape"></circle>
                <path fill="#eaf6fc"
                    d="M208.823 353.17 256 400.546l-29.343 29.4s-34.51-38.568-17.834-76.778zm94.354 0L256 400.546l29.343 29.4s34.51-38.568 17.834-76.778z"
                    class="coloreaf6fc svgShape"></path>
                <path fill="#3f3e4e"
                    d="M167.32 389.708c6.406-10.894 23.935-29.073 41.503-36.337 0 30.629 16.545 61.247 47.177 126.595l-.042.034c-11.06-.005-29.67-2.015-49.23-4.63-10.628-20.787-25.317-47.563-25.317-53.919-.292-5.451 7.24-8.282 16.311-13.608l-26.729-8.575a6.56 6.56 0 0 1-3.672-9.56ZM344.68 389.708c-6.406-10.894-23.935-29.073-41.504-36.337 0 30.629-16.544 61.247-47.176 126.595l.042.034c11.06-.005 29.67-2.015 49.23-4.63 10.628-20.787 25.317-47.563 25.317-53.919.292-5.451-7.24-8.282-16.311-13.608l26.729-8.575a6.56 6.56 0 0 0 3.672-9.56Z"
                    class="color3f3e4e svgShape"></path>
                <path fill="#bd7768" d="m256 400.547 47.177-47.176V321.92h-94.354v31.451L256 400.547z"
                    class="colorbd7768 svgShape"></path>
                <path fill="#b56959"
                    d="M208.823 353.17c12.92 5.95 28.387 9.636 47.177 9.636s34.257-3.686 47.176-9.637v-21.814h-94.353Z"
                    class="colorb56959 svgShape"></path>
                <path fill="#bd7768"
                    d="M364.843 252.437a7.93 7.93 0 0 1 6.51-6.507 31.73 31.73 0 0 0 26.177-30.944v-23.588a31.736 31.736 0 0 0-26.36-30.976 8.012 8.012 0 0 1-6.477-6.178 63.114 63.114 0 0 0-61.516-49.336h-94.353a63.114 63.114 0 0 0-61.516 49.336 8.012 8.012 0 0 1-6.476 6.178 31.736 31.736 0 0 0-26.361 30.976v23.588a31.73 31.73 0 0 0 26.176 30.944 7.93 7.93 0 0 1 6.51 6.507c5.506 34.359 27.08 96.215 108.843 96.215s103.337-61.856 108.843-96.215Z"
                    class="colorbd7768 svgShape"></path>
                <circle cx="207.651" cy="195.812" r="15.664" fill="#3d3c3b" transform="rotate(-45 207.65 195.812)"
                    class="color3d3c3b svgShape"></circle>
                <circle cx="304.356" cy="195.812" r="15.664" fill="#3d3c3b" transform="rotate(-45 304.356 195.812)"
                    class="color3d3c3b svgShape"></circle>
            </g>
        </svg></g>
</svg>