<svg xmlns="http://www.w3.org/2000/svg" version="1.1" xmlns:xlink="http://www.w3.org/1999/xlink"
    xmlns:svgjs="http://svgjs.com/svgjs" width="512" height="512" x="0" y="0" viewBox="0 0 64 64"
    style="enable-background:new 0 0 512 512" xml:space="preserve" class="">
    <g>
        <path fill="#ffcb1e"
            d="M8.008 55.787a3.002 3.002 0 0 1-2.6-4.502L29.4 9.728a3.002 3.002 0 0 1 5.2 0l23.992 41.557a3.002 3.002 0 0 1-2.6 4.502z"
            data-original="#ffcb1e"></path>
        <g fill="#373737">
            <path
                d="M32 9.227a1.966 1.966 0 0 1 1.733 1.001l23.993 41.557a2.002 2.002 0 0 1-1.733 3.002H8.007a2.002 2.002 0 0 1-1.733-3.002l23.993-41.557a1.966 1.966 0 0 1 1.733-1m0-2a3.964 3.964 0 0 0-3.465 2L4.542 50.785a4.001 4.001 0 0 0 3.465 6.002h47.986a4.001 4.001 0 0 0 3.465-6.002L35.465 9.228a3.964 3.964 0 0 0-3.465-2z"
                fill="#373737" data-original="#373737"></path>
            <path
                d="m52.303 49.012-4.542-8A2 2 0 0 0 46.02 40h-4.333a2.01 2.01 0 0 0-1.909 1.43c-.844 2.679-4.006 4.67-7.779 4.67s-6.935-1.991-7.78-4.67A2.01 2.01 0 0 0 22.312 40h-4.333a2 2 0 0 0-1.74 1.012l-4.542 8A2 2 0 0 0 13.436 52h37.128a2 2 0 0 0 1.74-2.988zM34 33V19h-4v14h-4l6 6 6-6z"
                fill="#373737" data-original="#373737"></path>
        </g>
    </g>
</svg>