<svg xmlns="http://www.w3.org/2000/svg" version="1.1" xmlns:xlink="http://www.w3.org/1999/xlink"
    xmlns:svgjs="http://svgjs.com/svgjs" width="512" height="512" x="0" y="0" viewBox="0 0 512 512"
    style="enable-background:new 0 0 512 512" xml:space="preserve" class="">
    <g>
        <path fill="#1a1e38" d="M216 372.027h104V432H216z" data-original="#1a1e38"></path>
        <path fill="#2f4054"
            d="M202.97 397.17A70.546 70.546 0 0 1 154.18 416h-52.36c-64.14 0-96.27-77.55-50.91-122.91L88 256h80l9.05 9.05 28.04 28.04c31.4 31.4 25.67 78.23-2.12 104.08z"
            data-original="#2f4054"></path>
        <path fill="#262d43"
            d="M88 360H72v-26.747a116.482 116.482 0 0 1 34.342-82.908l12.001-12.002 11.314 11.314-12.002 12.001A100.588 100.588 0 0 0 88 333.253z"
            data-original="#262d43"></path>
        <path fill="#262d43"
            d="M176 333.25V360h-16v-26.75a101.763 101.763 0 0 0-2.11-20.71 100.517 100.517 0 0 0-27.55-50.88l-12-12 11.32-11.32 12 12A116.616 116.616 0 0 1 176 333.25z"
            data-original="#262d43"></path>
        <rect width="112" height="24" x="72" y="232" fill="#ae7d4d" rx="12" data-original="#ae7d4d"></rect>
        <path fill="#2f4054"
            d="M80 208v-16a16 16 0 0 1 16-16 16 16 0 0 1 16 16 16 16 0 0 0 16 16 16 16 0 0 0 16-16 16 16 0 0 1 16-16 16 16 0 0 1 16 16v16a24 24 0 0 1-24 24h-48a24 24 0 0 1-24-24z"
            data-original="#2f4054"></path>
        <path fill="#262d43"
            d="M202.97 397.17a87.246 87.246 0 0 1-38.45-43.49c-12.62-30.46-7.73-63.59 12.53-88.63l28.04 28.04c31.4 31.4 25.67 78.23-2.12 104.08z"
            data-original="#262d43"></path>
        <path fill="#1a1e38"
            d="M176 333.25V360h-8.58c-1.04-2.05-2-4.16-2.9-6.32a91.008 91.008 0 0 1-4.52-13.95v-6.48a101.763 101.763 0 0 0-2.11-20.71 84.788 84.788 0 0 1 7.37-28.44A116.698 116.698 0 0 1 176 333.25z"
            data-original="#1a1e38"></path>
        <path fill="#2f4054"
            d="M298.18 392h-52.36c-64.14 0-96.27-77.55-50.91-122.91L232 232h80l13.74 13.74 23.35 23.35C394.45 314.45 362.32 392 298.18 392z"
            data-original="#2f4054"></path>
        <path fill="#262d43"
            d="M232 336h-16v-26.747a116.482 116.482 0 0 1 34.342-82.908l12.001-12.002 11.314 11.314-12.002 12.001A100.588 100.588 0 0 0 232 309.253z"
            data-original="#262d43"></path>
        <path fill="#262d43"
            d="M320 309.25V336h-16v-26.75a100.557 100.557 0 0 0-29.66-71.59l-12-12 11.32-11.32 12 12A117.227 117.227 0 0 1 320 309.25z"
            data-original="#262d43"></path>
        <rect width="112" height="24" x="216" y="208" fill="#ae7d4d" rx="12" data-original="#ae7d4d"></rect>
        <path fill="#2f4054"
            d="M224 184v-16a16 16 0 0 1 16-16 16 16 0 0 1 16 16 16 16 0 0 0 16 16 16 16 0 0 0 16-16 16 16 0 0 1 16-16 16 16 0 0 1 16 16v16a24 24 0 0 1-24 24h-48a24 24 0 0 1-24-24z"
            data-original="#2f4054"></path>
        <path fill="#262d43"
            d="M298.18 392h-25.29a88.214 88.214 0 0 1 22.71-38.23l21.58-21.58a27.927 27.927 0 0 1 5.39-38.08A39.787 39.787 0 0 1 320 280v-16a31.778 31.778 0 0 1 5.74-18.26l23.35 23.35C394.45 314.45 362.32 392 298.18 392z"
            data-original="#262d43"></path>
        <path fill="#1a1e38"
            d="M320 309.25V336h-6.63l3.81-3.81a27.906 27.906 0 0 1 2.19-35.09 116.55 116.55 0 0 1 .63 12.15z"
            data-original="#1a1e38"></path>
        <path fill="#2f4054"
            d="M461.088 365.088 424 328h-80l-37.088 37.088C261.554 410.446 293.678 488 357.823 488h52.354c64.145 0 96.269-77.554 50.911-122.912z"
            data-original="#2f4054"></path>
        <path fill="#262d43"
            d="M344 432h-16v-26.747a116.482 116.482 0 0 1 34.342-82.908l12.001-12.002 11.314 11.314-12.002 12.001A100.588 100.588 0 0 0 344 405.253z"
            data-original="#262d43"></path>
        <path fill="#262d43"
            d="M432 432h-16v-26.747a100.588 100.588 0 0 0-29.655-71.595l-12.002-12.001 11.314-11.314 12.001 12.002A116.482 116.482 0 0 1 432 405.253z"
            data-original="#262d43"></path>
        <rect width="112" height="24" x="328" y="304" fill="#ae7d4d" rx="12" data-original="#ae7d4d"></rect>
        <path fill="#2f4054"
            d="M336 280v-16a16 16 0 0 1 16-16 16 16 0 0 1 16 16 16 16 0 0 0 16 16 16 16 0 0 0 16-16 16 16 0 0 1 16-16 16 16 0 0 1 16 16v16a24 24 0 0 1-24 24h-48a24 24 0 0 1-24-24z"
            data-original="#2f4054"></path>
        <path fill="#ae7d4d"
            d="M368 456a32.004 32.004 0 0 1-32 32H56a32 32 0 0 1 0-64c.34 0 .68.02 1.02.03a31.995 31.995 0 0 1 39.47-38.88A48 48 0 0 1 192 392h16v40h56a32.001 32.001 0 0 1 63.27-6.79A32.012 32.012 0 0 1 368 456z"
            data-original="#ae7d4d"></path>
        <g fill="#976342">
            <path
                d="m87.75 420-10.58 12a31.956 31.956 0 0 0-20.15-7.97 32.113 32.113 0 0 1-.01-16.02A47.948 47.948 0 0 1 87.75 420zM129.57 391.99 115.72 400a32.13 32.13 0 0 0-19.23-14.85 47.79 47.79 0 0 1 4.89-15.23 48.162 48.162 0 0 1 28.19 22.07zM327.27 425.21A32.235 32.235 0 0 0 308.28 440l-13.84-8.02a48.08 48.08 0 0 1 25.51-21.19 31.795 31.795 0 0 1 7.32 14.42z"
                fill="#976342" data-original="#976342"></path>
        </g>
        <path fill="#efbf33" d="M272 368v64c0 13.25-17.91 24-40 24s-40-10.75-40-24v-64z" data-original="#efbf33"></path>
        <ellipse cx="192" cy="324" fill="#efdd9b" rx="24" ry="36" data-original="#efdd9b"></ellipse>
        <ellipse cx="232" cy="368" fill="#e98704" rx="40" ry="24" data-original="#e98704"></ellipse>
        <path fill="#efdd9b"
            d="m106.343 157.657-8-8a41.988 41.988 0 0 1 0-59.314 25.971 25.971 0 0 0 0-36.686l11.314-11.314a41.988 41.988 0 0 1 0 59.314 25.971 25.971 0 0 0 0 36.686l8 8z"
            data-original="#efdd9b"></path>
        <path fill="#efbf33" d="m74.332 29.663 11.312-11.312 15.997 15.997L90.33 45.66z" data-original="#efbf33"></path>
        <path fill="#efdd9b" d="M200 160h-12a36 36 0 0 1 0-72h44v16h-44a20 20 0 0 0 0 40h12z" data-original="#efdd9b">
        </path>
        <path fill="#efbf33" d="M248 88h16v16h-16z" data-original="#efbf33"></path>
        <path fill="#efdd9b"
            d="m354.343 157.657-12-12a36.325 36.325 0 0 1 0-51.314 20.308 20.308 0 0 0 0-28.686l-12-12 11.314-11.314 12 12a36.325 36.325 0 0 1 0 51.314 20.308 20.308 0 0 0 0 28.686l12 12z"
            data-original="#efdd9b"></path>
        <path fill="#efbf33" d="m306.307 29.688 11.312-11.312 15.997 15.997-11.312 11.312z" data-original="#efbf33">
        </path>
        <path fill="#efdd9b"
            d="m459.716 253.657-11.314-11.314 8-8a25.972 25.972 0 0 0 0-36.686 41.988 41.988 0 0 1 0-59.314 25.972 25.972 0 0 0 0-36.686l11.314-11.314a41.989 41.989 0 0 1 0 59.314 25.972 25.972 0 0 0 0 36.686 41.988 41.988 0 0 1 0 59.314z"
            data-original="#efdd9b"></path>
        <path fill="#efbf33" d="m432.348 77.696 11.312-11.312 15.997 15.998-11.312 11.312z" data-original="#efbf33">
        </path>
        <path fill="#262d43" d="M16 480h480v16H16z" data-original="#262d43"></path>
    </g>
</svg>