<svg xmlns="http://www.w3.org/2000/svg" version="1.1" xmlns:xlink="http://www.w3.org/1999/xlink"
    xmlns:svgjs="http://svgjs.com/svgjs" width="512" height="512" x="0" y="0" viewBox="0 0 512 512"
    style="enable-background:new 0 0 512 512" xml:space="preserve" class="">
    <g>
        <path fill="#ffdd00"
            d="M384 224c0 45.69-19.16 86.9-49.87 116.06-29.58 27.82-46.78 35.85-46.13 75.94l-64 21.02-1.2-.39L160 416c.66-40.11-15.89-47.92-44.97-74.86C83.72 312.01 64.1 270.48 64 224.37 63.8 136.68 135.12 64.65 222.8 64c88.92-.65 161.2 71.24 161.2 160z"
            data-original="#ffdd00"></path>
        <path fill="#ffc200"
            d="M384 224c0 45.69-19.16 86.9-49.87 116.06-29.58 27.82-46.78 35.85-46.13 75.94l-64 21.02-1.2-.39V64c88.92-.65 161.2 71.24 161.2 160z"
            data-original="#ffc200" class=""></path>
        <circle cx="352" cy="96" r="96" fill="#faeee4" data-original="#faeee4"></circle>
        <path fill="#efe2dd" d="M448 96c0 53.02-42.98 96-96 96V0c53.02 0 96 42.98 96 96z" data-original="#efe2dd">
        </path>
        <path fill="#ff3377"
            d="m373.21 96 24.58 24.58-21.21 21.21L352 117.21l-24.58 24.58-21.21-21.21L330.79 96l-24.58-24.58 21.21-21.21L352 74.79l24.58-24.58 21.21 21.21z"
            data-original="#ff3377"></path>
        <path fill="#cc295f" d="m373.21 96 24.58 24.58-21.21 21.21L352 117.21V74.79l24.58-24.58 21.21 21.21z"
            data-original="#cc295f"></path>
        <path fill="#ffc200"
            d="M283.05 180.75a46.134 46.134 0 0 0-46.25 44.54l-.59 15.71h-26.8l-.6-15.71a46.15 46.15 0 0 0-46.26-44.54c-24.88 0-45.12 20.24-45.12 45.13 0 24.88 20.24 45.12 45.12 45.12h18l6.39 166.02 29.98-1.15L210.57 271h24.5l-6.21 164.88 29.98 1.13L265.1 271h17.95c24.88 0 45.13-20.24 45.13-45.12 0-24.89-20.25-45.13-45.13-45.13zM162.55 241c-8.34 0-15.12-6.78-15.12-15.12s6.78-15.13 15.12-15.13c8.8 0 15.95 6.88 16.28 15.68l.56 14.57zm120.5 0h-16.82l.55-14.58a16.23 16.23 0 0 1 16.27-15.67c8.34 0 15.13 6.79 15.13 15.13S291.39 241 283.05 241z"
            data-original="#ffc200" class=""></path>
        <path fill="#ffa000"
            d="M283.05 180.75a46.134 46.134 0 0 0-46.25 44.54l-.59 15.71H222.8v30h12.27l-6.21 164.88 29.98 1.13L265.1 271h17.95c24.88 0 45.13-20.24 45.13-45.12 0-24.89-20.25-45.13-45.13-45.13zm0 60.25h-16.82l.55-14.58a16.23 16.23 0 0 1 16.27-15.67c8.34 0 15.13 6.79 15.13 15.13S291.39 241 283.05 241z"
            data-original="#ffa000"></path>
        <path fill="#455468" d="M288 416v64l-32 32h-64l-32-32v-64z" data-original="#455468"></path>
        <path fill="#36404f" d="M288 416v64l-32 32h-33.2v-96z" data-original="#36404f"></path>
    </g>
</svg>