<svg xmlns="http://www.w3.org/2000/svg" version="1.1" xmlns:xlink="http://www.w3.org/1999/xlink"
    xmlns:svgjs="http://svgjs.com/svgjs" width="512" height="512" x="0" y="0" viewBox="0 0 511 512"
    style="enable-background:new 0 0 512 512" xml:space="preserve" class="">
    <g transform="matrix(0.9699999999999998,0,0,0.9699999999999998,85.4439347839357,7.679999942779858)">
        <path fill="#4d5967"
            d="M225.203 0h-99.625c-8.535 0-15.453 6.918-15.453 15.453v23.18L252.797 26.28C252.39 11.551 239.937 0 225.203 0zm0 0"
            data-original="#4d5967" class=""></path>
        <g fill="#35404a">
            <path
                d="M237.344 0H221.16v23.18H110.125v41.207h142.672V15.453C252.797 6.918 245.875 0 237.344 0zM.5 100.441c0 55.856 45.277 101.133 101.129 101.133H261.3c55.851 0 101.129-45.277 101.129-101.133a7.725 7.725 0 0 0-7.723-7.726H8.227A7.729 7.729 0 0 0 .5 100.44zM.5 240.203c0 55.852 45.277 101.133 101.129 101.133H261.3c55.851 0 101.129-45.281 101.129-101.133a7.725 7.725 0 0 0-7.723-7.726H8.227A7.729 7.729 0 0 0 .5 240.203zM.5 379.965c0 55.851 45.277 101.129 101.129 101.129H261.3c55.851 0 101.129-45.278 101.129-101.13a7.725 7.725 0 0 0-7.723-7.726H8.227A7.729 7.729 0 0 0 .5 379.965zm0 0"
                fill="#35404a" data-original="#35404a" class=""></path>
        </g>
        <path fill="#4d5967"
            d="M305.086 69.54v427.007c0 8.535-6.918 15.453-15.453 15.453H73.297c-8.535 0-15.453-6.918-15.453-15.453V69.539c0-8.535 6.918-15.453 15.453-15.453h216.336c8.535 0 15.453 6.918 15.453 15.453zm0 0"
            data-original="#4d5967" class=""></path>
        <path fill="#35404a"
            d="M289.633 54.086h-15.45v427.008H57.844v15.453c0 8.535 6.919 15.453 15.454 15.453h216.336c8.535 0 15.453-6.918 15.453-15.453V69.539c0-8.535-6.918-15.453-15.453-15.453zm0 0"
            data-original="#35404a" class=""></path>
        <path fill="#ff5368"
            d="M181.465 201.574c-30.012 0-54.426-24.418-54.426-54.43s24.414-54.43 54.426-54.43 54.43 24.419 54.43 54.43-24.418 54.43-54.43 54.43zm0 0"
            data-original="#ff5368" class=""></path>
        <path fill="#c5324f"
            d="M204.027 97.633a54.111 54.111 0 0 1 4.914 22.558c0 30.012-24.418 54.426-54.43 54.426a54.064 54.064 0 0 1-22.558-4.914c8.594 18.781 27.547 31.867 49.512 31.867 30.012 0 54.43-24.414 54.43-54.425 0-21.965-13.09-40.922-31.868-49.512zm0 0"
            data-original="#c5324f" class=""></path>
        <path fill="#ffcf5d"
            d="M181.465 341.332c-30.012 0-54.426-24.414-54.426-54.426s24.414-54.43 54.426-54.43 54.43 24.419 54.43 54.43-24.418 54.426-54.43 54.426zm0 0"
            data-original="#ffcf5d"></path>
        <path fill="#ff983b"
            d="M204.027 237.395a54.098 54.098 0 0 1 4.914 22.558c0 30.012-24.418 54.426-54.43 54.426-8.042 0-15.679-1.77-22.558-4.914 8.594 18.781 27.547 31.867 49.512 31.867 30.012 0 54.43-24.414 54.43-54.426 0-21.965-13.09-40.922-31.868-49.511zm0 0"
            data-original="#ff983b"></path>
        <path fill="#60f375"
            d="M181.465 481.094c-30.012 0-54.426-24.414-54.426-54.426s24.414-54.43 54.426-54.43 54.43 24.418 54.43 54.43-24.418 54.426-54.43 54.426zm0 0"
            data-original="#60f375"></path>
        <path fill="#00bd4f"
            d="M204.023 377.152a54.071 54.071 0 0 1 4.918 22.563c0 30.008-24.418 54.426-54.43 54.426-8.046 0-15.679-1.77-22.558-4.914 8.59 18.78 27.547 31.867 49.512 31.867 30.012 0 54.43-24.414 54.43-54.426 0-21.969-13.09-40.922-31.872-49.516zm0 0"
            data-original="#00bd4f"></path>
    </g>
</svg>