<svg xmlns="http://www.w3.org/2000/svg" version="1.1" xmlns:xlink="http://www.w3.org/1999/xlink"
    xmlns:svgjs="http://svgjs.com/svgjs" width="512" height="512" x="0" y="0" viewBox="0 0 512 512"
    style="enable-background:new 0 0 512 512" xml:space="preserve" class="">
    <g>
        <path
            d="m501.504 471.398-44.23-137.383a10.153 10.153 0 0 0-9.665-7.042H64.39a10.153 10.153 0 0 0-9.665 7.042l-44.23 137.383c-2.11 6.555 2.779 13.265 9.665 13.265h471.678c6.888 0 11.777-6.71 9.666-13.265zM128.89 380.852l-18.079 56.155a10.153 10.153 0 0 1-9.665 7.042h-19.28c-6.886 0-11.775-6.71-9.665-13.265l18.079-56.155a10.153 10.153 0 0 1 9.665-7.042h19.28c6.887 0 11.776 6.71 9.665 13.265zm98.175-1.875-6.894 56.155a10.153 10.153 0 0 1-10.078 8.916h-20.154c-6.098 0-10.821-5.338-10.078-11.391l6.894-56.155a10.153 10.153 0 0 1 10.078-8.916h20.154c6.098.001 10.821 5.338 10.078 11.391zm94.996 65.072h-20.154a10.153 10.153 0 0 1-10.078-8.916l-6.894-56.155c-.743-6.053 3.98-11.391 10.078-11.391h20.154c5.129 0 9.453 3.825 10.078 8.916l6.894 56.155c.743 6.053-3.98 11.391-10.078 11.391zm108.073 0h-19.281a10.153 10.153 0 0 1-9.665-7.042l-18.079-56.155c-2.11-6.555 2.779-13.265 9.665-13.265h19.28c4.409 0 8.314 2.845 9.665 7.042l18.079 56.155c2.111 6.555-2.778 13.265-9.664 13.265z"
            style="" fill="#c5d3de" data-original="#c5d3de"></path>
        <path
            d="M252.61 183.267c1.507-2.61 5.274-2.61 6.781 0l24.832 43.011c12.543 21.726-3.136 48.883-28.223 48.883s-40.766-27.157-28.223-48.883l24.833-43.011zM252.61 29.294c1.507-2.61 5.274-2.61 6.781 0l24.832 43.011c12.543 21.726-3.136 48.883-28.223 48.883s-40.766-27.157-28.223-48.883l24.833-43.011zM154.534 110.047c1.507-2.61 5.274-2.61 6.781 0l24.832 43.011c12.543 21.726-3.136 48.883-28.223 48.883s-40.766-27.157-28.223-48.883l24.833-43.011zM350.686 110.047c1.507-2.61 5.274-2.61 6.781 0l24.832 43.011c12.543 21.726-3.136 48.883-28.223 48.883s-40.766-27.157-28.223-48.883l24.833-43.011z"
            style="" fill="#66e0f7" data-original="#66e0f7"></path>
        <path
            d="M210.522 484.663H20.161c-6.886 0-11.775-6.71-9.665-13.265l44.23-137.383a10.153 10.153 0 0 1 9.665-7.042H447.61c4.409 0 8.314 2.845 9.665 7.042l44.23 137.383c2.11 6.555-2.779 13.265-9.665 13.265H301.642"
            style="stroke-width:20;stroke-linecap:round;stroke-linejoin:round;stroke-miterlimit:10;" fill="none"
            stroke="#000000" stroke-width="20" stroke-linecap="round" stroke-linejoin="round" stroke-miterlimit="10"
            data-original="#000000"></path>
        <path
            d="m110.811 437.007 18.079-56.155c2.11-6.555-2.778-13.265-9.665-13.265h-19.28a10.153 10.153 0 0 0-9.665 7.042l-18.079 56.155c-2.11 6.555 2.778 13.265 9.665 13.265h19.28c4.409 0 8.314-2.845 9.665-7.042zM220.171 435.133l6.894-56.155c.743-6.053-3.979-11.391-10.078-11.391h-20.154a10.153 10.153 0 0 0-10.078 8.916l-6.894 56.155c-.743 6.053 3.98 11.391 10.078 11.391h20.154c5.13 0 9.453-3.826 10.078-8.916zM401.189 437.007l-18.079-56.155c-2.11-6.555 2.778-13.265 9.665-13.265h19.28c4.409 0 8.314 2.845 9.665 7.042l18.079 56.155c2.11 6.555-2.778 13.265-9.665 13.265h-19.28a10.153 10.153 0 0 1-9.665-7.042zM291.829 435.133l-6.894-56.155c-.743-6.053 3.979-11.391 10.078-11.391h20.154c5.129 0 9.453 3.825 10.078 8.916l6.894 56.155c.743 6.053-3.979 11.391-10.078 11.391h-20.154c-5.13 0-9.453-3.826-10.078-8.916zM252.61 183.267c1.507-2.61 5.274-2.61 6.781 0l24.832 43.011h0c12.543 21.726-3.136 48.883-28.223 48.883h0c-25.087 0-40.766-27.157-28.223-48.883h0l24.833-43.011zM252.61 29.294c1.507-2.61 5.274-2.61 6.781 0l24.832 43.011h0c12.543 21.726-3.136 48.883-28.223 48.883h0c-25.087 0-40.766-27.157-28.223-48.883h0l24.833-43.011zM154.534 110.047c1.507-2.61 5.274-2.61 6.781 0l24.832 43.011h0c12.543 21.726-3.136 48.883-28.223 48.883h0c-25.087 0-40.766-27.157-28.223-48.883h0l24.833-43.011zM350.686 110.047c1.507-2.61 5.274-2.61 6.781 0l24.832 43.011h0c12.543 21.726-3.136 48.883-28.223 48.883h0c-25.087 0-40.766-27.157-28.223-48.883h0l24.833-43.011zM256 484.663h0"
            style="stroke-width:20;stroke-linecap:round;stroke-linejoin:round;stroke-miterlimit:10;" fill="none"
            stroke="#000000" stroke-width="20" stroke-linecap="round" stroke-linejoin="round" stroke-miterlimit="10"
            data-original="#000000"></path>
    </g>
</svg>