<svg xmlns="http://www.w3.org/2000/svg" version="1.1" xmlns:xlink="http://www.w3.org/1999/xlink" width="512"
    height="512" x="0" y="0" viewBox="0 0 24 24" style="enable-background:new 0 0 512 512" xml:space="preserve">
    <g>
        <path
            d="M9.244 7.83a4.991 4.991 0 0 1 5.512 0l4.988-4.988a11.972 11.972 0 0 0-15.488 0ZM21.158 4.256 16.17 9.244a4.991 4.991 0 0 1 0 5.512l4.988 4.988a11.972 11.972 0 0 0 0-15.488ZM14.756 16.17a4.991 4.991 0 0 1-5.512 0l-4.988 4.988a11.972 11.972 0 0 0 15.488 0ZM7.83 14.756a4.991 4.991 0 0 1 0-5.512L2.842 4.256a11.972 11.972 0 0 0 0 15.488Z"
            fill="currentColor" opacity="1" data-original="currentColor"></path>
    </g>
</svg>