<svg xmlns="http://www.w3.org/2000/svg" version="1.1" xmlns:xlink="http://www.w3.org/1999/xlink" width="512"
    height="512" x="0" y="0" viewBox="0 0 24 24" style="enable-background:new 0 0 512 512" xml:space="preserve">
    <g>
        <path
            d="M8 19.998h8v.31a3.694 3.694 0 0 1-3.69 3.69h-.619a3.694 3.694 0 0 1-3.69-3.69v-.31Zm13-11a8.991 8.991 0 0 1-3.068 6.763c-.739.648-1.275 1.413-1.594 2.237H7.563a6.84 6.84 0 0 0-1.695-2.417c-2.149-2.001-3.167-4.83-2.793-7.761C3.59 3.78 6.904.515 10.956.057a9.044 9.044 0 0 1 7.038 2.227A9.015 9.015 0 0 1 21 8.998ZM11 10a1 1 0 1 0 2 0V5a1 1 0 1 0-2 0v5Zm2.5 3.5a1.5 1.5 0 1 0-3.001.001A1.5 1.5 0 0 0 13.5 13.5Z"
            fill="currentColor" opacity="1" data-original="#000000"></path>
    </g>
</svg>