<svg xmlns="http://www.w3.org/2000/svg" version="1.1" xmlns:xlink="http://www.w3.org/1999/xlink"
    xmlns:svgjs="http://svgjs.com/svgjs" width="512" height="512" x="0" y="0" viewBox="0 0 64 64"
    style="enable-background:new 0 0 512 512" xml:space="preserve" class="">
    <g>
        <g data-name="Layer 5">
            <path d="M9.042 35.909h4v17h-4z" style="" transform="rotate(-10 11.041 44.41)" fill="#fcab68"
                data-original="#fcab68"></path>
            <path
                d="m10.548 53.127 3.94-.7-.7-3.982a16.118 16.118 0 0 1-3.966.541ZM12.851 43.15l-1.315-7.459-3.94.694 1.35 7.657a7.14 7.14 0 0 0 3.905-.892Z"
                style="" fill="#ea8e49" data-original="#ea8e49"></path>
            <path
                d="m44.957 17.282-21.54 12.947a2 2 0 0 0 .683 3.684l1.627.286L42.418 24.1a2 2 0 0 1 2.594.457l12.229 15.2 1.627.287a2 2 0 0 0 1.9-3.228Z"
                style="" fill="#ea5b5a" data-original="#ea5b5a"></path>
            <path d="M47.013 24a1 1 0 0 1-.778-.371l-1.012-1.25a1 1 0 0 1 1.554-1.258l1.013 1.25A1 1 0 0 1 47.013 24Z"
                style="" fill="#ffffff" data-original="#ffffff"></path>
            <path
                d="M27.418 30.229 46.267 18.9l-1.309-1.617-21.54 12.946a2 2 0 0 0 .683 3.684l1.627.286 1.343-.812a2 2 0 0 1 .347-3.158Z"
                style="" fill="#e04b4b" data-original="#e04b4b"></path>
            <path d="M42.418 24.1 25.727 34.2 22.6 51.926l31.514 5.557 3.126-17.727-12.229-15.2a2 2 0 0 0-2.593-.456Z"
                style="" fill="#dbe6fd" data-original="#dbe6fd"></path>
            <path
                d="m45.225 24.819-.213-.265a2 2 0 0 0-2.594-.457L25.727 34.2l-.473 2.681-2.127 12.061-.527 2.984 31.514 5.557 1.5-8.533c-.37.023-.737.05-1.12.05a13.726 13.726 0 0 1-6.553-1.454 1.91 1.91 0 0 0-1.894 0A13.723 13.723 0 0 1 39.5 49a13.768 13.768 0 0 1-6.525-1.438 1.955 1.955 0 0 0-1.924-.015q-.271.154-.573.3a2 2 0 0 1-2.772-2.183l1.39-7.885a8 8 0 0 1 3.736-5.454l8.807-5.331a2 2 0 0 1 2.373.565l12.229 15.2.456.081.544-3.081Z"
                style="" fill="#bbcff2" data-original="#bbcff2"></path>
            <path d="M37.4 42.8h4a2 2 0 0 1 2 2v10h-8v-10a2 2 0 0 1 2-2Z" style=""
                transform="rotate(10.02 39.325 48.691)" fill="#ea5b5a" data-original="#ea5b5a"></path>
            <path
                d="M39.5 49a16.358 16.358 0 0 1-4.109-.505l-.972 5.515 3.939.694 3.939.7 1.213-6.878A16.492 16.492 0 0 1 39.5 49Z"
                style="" fill="#e04b4b" data-original="#e04b4b"></path>
            <path d="M28.246 41.12h4v4h-4z" style="" transform="rotate(10 30.245 43.119)" fill="#a7d0e1"
                data-original="#a7d0e1"></path>
            <path d="M47.943 44.593h4v4h-4z" style="" transform="rotate(10 49.945 46.59)" fill="#a7d0e1"
                data-original="#a7d0e1"></path>
            <path
                d="M47.953 47.549a2.057 2.057 0 0 0-.2-.079l-.131.745 3.939.695.027-.153a11.373 11.373 0 0 1-3.635-1.208Z"
                style="" fill="#80bbce" data-original="#80bbce"></path>
            <circle cx="42.005" cy="34.023" r="3" style="" fill="#a7d0e1" data-original="#a7d0e1"></circle>
            <path
                d="M17 5a3.971 3.971 0 0 0-.526.053 3.966 3.966 0 0 0-6.948 0A3.971 3.971 0 0 0 9 5a4 4 0 0 0 0 8h8a4 4 0 0 0 0-8Z"
                style="" fill="#dbe6fd" data-original="#dbe6fd"></path>
            <path
                d="M20 10h-8a3.972 3.972 0 0 1-3.892-4.892A4 4 0 0 0 9 13h8a4 4 0 0 0 3.892-3.108A3.974 3.974 0 0 1 20 10Z"
                style="" fill="#bbcff2" data-original="#bbcff2"></path>
            <path
                d="M55 3a3.971 3.971 0 0 0-.526.053 3.966 3.966 0 0 0-6.948 0A3.991 3.991 0 1 0 47 11h8a4 4 0 0 0 0-8Z"
                style="" fill="#dbe6fd" data-original="#dbe6fd"></path>
            <path
                d="M58 8h-8a3.972 3.972 0 0 1-3.892-4.892A4 4 0 0 0 47 11h8a4 4 0 0 0 3.892-3.108A3.974 3.974 0 0 1 58 8Z"
                style="" fill="#bbcff2" data-original="#bbcff2"></path>
            <path
                d="M63 51.794a1.993 1.993 0 0 0-2.78-1.835A14.878 14.878 0 0 1 54.5 51a13.735 13.735 0 0 1-6.547-1.451 1.928 1.928 0 0 0-1.906 0A13.735 13.735 0 0 1 39.5 51a13.735 13.735 0 0 1-6.547-1.451 1.928 1.928 0 0 0-1.906 0A13.735 13.735 0 0 1 24.5 51a13.735 13.735 0 0 1-6.547-1.451 1.928 1.928 0 0 0-1.906 0A13.735 13.735 0 0 1 9.5 51a14.878 14.878 0 0 1-5.72-1.041A1.993 1.993 0 0 0 1 51.794V63h62Z"
                style="" fill="#a7d0e1" data-original="#a7d0e1"></path>
            <path
                d="M63 57.794a1.993 1.993 0 0 0-2.78-1.835A14.878 14.878 0 0 1 54.5 57a13.735 13.735 0 0 1-6.547-1.451 1.928 1.928 0 0 0-1.906 0A13.735 13.735 0 0 1 39.5 57a13.735 13.735 0 0 1-6.547-1.451 1.928 1.928 0 0 0-1.906 0A13.735 13.735 0 0 1 24.5 57a13.735 13.735 0 0 1-6.547-1.451 1.928 1.928 0 0 0-1.906 0A13.735 13.735 0 0 1 9.5 57a14.878 14.878 0 0 1-5.72-1.041A1.993 1.993 0 0 0 1 57.794V63h62Z"
                style="" fill="#80bbce" data-original="#80bbce"></path>
            <ellipse cx="9.045" cy="33.084" rx="8" ry="9" style="" transform="rotate(-10 9.044 33.08)" fill="#72aa65"
                data-original="#72aa65"></ellipse>
            <path
                d="M13.608 38.947c-4.351.767-8.578-2.579-9.441-7.474a9.583 9.583 0 0 1 1.084-6.462 8.937 8.937 0 0 0-4.084 9.462c.863 4.9 5.09 8.241 9.441 7.474a7.588 7.588 0 0 0 5.231-3.791 7.2 7.2 0 0 1-2.231.791Z"
                style="" fill="#599149" data-original="#599149"></path>
            <path
                d="M31.87 46.437a1 1 0 0 0 .984-.827l.694-3.939a1 1 0 0 0-.811-1.158l-3.939-.7a1 1 0 0 0-1.159.811l-.694 3.94a1 1 0 0 0 .811 1.158l3.939.694a.95.95 0 0 0 .175.021Zm-.812-2.159-1.97-.347.347-1.97 1.97.348ZM47.848 46.955a1 1 0 0 0 1.158-.811l.125-.71 1.97.347-.185 1.049a1 1 0 0 0 .811 1.158.948.948 0 0 0 .173.012 1 1 0 0 0 .984-.826l.359-2.033a1 1 0 0 0-.812-1.159l-3.939-.694a1 1 0 0 0-1.159.811l-.3 1.694a1 1 0 0 0 .815 1.162ZM41.31 37.963a4.088 4.088 0 0 0 .7.061 4 4 0 1 0-.7-.061Zm-1.275-4.287a2 2 0 1 1 1.623 2.317 1.989 1.989 0 0 1-1.623-2.317ZM9 14h8a5 5 0 0 0 0-10h-.021a4.957 4.957 0 0 0-7.957 0H9a5 5 0 0 0 0 10Zm0-8a3.07 3.07 0 0 1 .392.044 1 1 0 0 0 1.005-.5 2.967 2.967 0 0 1 5.206 0 1 1 0 0 0 1 .5l.105-.014A2.126 2.126 0 0 1 17 6a3 3 0 0 1 0 6H9a3 3 0 0 1 0-6ZM47 12h8a5 5 0 0 0 0-10h-.021a4.957 4.957 0 0 0-7.957 0H47a5 5 0 0 0 0 10Zm0-8a3.07 3.07 0 0 1 .392.044.993.993 0 0 0 1-.5 2.967 2.967 0 0 1 5.206 0 1 1 0 0 0 1 .5l.105-.014A2.126 2.126 0 0 1 55 4a3 3 0 0 1 0 6h-8a3 3 0 0 1 0-6Z"
                fill="#000000" data-original="#000000"></path>
            <path
                d="M62.654 49.291a2.98 2.98 0 0 0-2.827-.251 12.427 12.427 0 0 1-3.354.83l1.579-8.955.642.113a3.036 3.036 0 0 0 .534.047 3 3 0 0 0 2.319-4.889L45.734 16.652a1 1 0 0 0-1.293-.227L22.9 29.372a3 3 0 0 0 1.027 5.528l.641.113-2.608 14.8a10.521 10.521 0 0 1-3.513-1.127 2.941 2.941 0 0 0-2.894 0 6.87 6.87 0 0 1-.654.325l-1.263-7.163a8.882 8.882 0 0 0 2.936-2.949 10.533 10.533 0 0 0 1.336-7.372c-.957-5.43-5.71-9.151-10.6-8.286a8.516 8.516 0 0 0-5.79 4.039 10.533 10.533 0 0 0-1.336 7.366 10.005 10.005 0 0 0 7.546 8.243l1.249 7.089a13.58 13.58 0 0 1-4.8-.938A2.993 2.993 0 0 0 0 51.794V63a1 1 0 0 0 1 1h62a1 1 0 0 0 1-1V51.794a2.987 2.987 0 0 0-1.346-2.503Zm-49.677.335a14.9 14.9 0 0 1-1.977.3l-1.215-6.889a8.287 8.287 0 0 0 1-.1 8.369 8.369 0 0 0 .973-.238ZM2.151 34.3a8.54 8.54 0 0 1 1.069-5.977 6.542 6.542 0 0 1 4.436-3.118 6.185 6.185 0 0 1 1.071-.094c3.4 0 6.518 2.823 7.211 6.757a8.54 8.54 0 0 1-1.068 5.976 6.544 6.544 0 0 1-4.436 3.118c-3.799.676-7.516-2.319-8.283-6.662ZM62 62H2v-4.206a.992.992 0 0 1 1.386-.916A15.94 15.94 0 0 0 9.5 58a14.776 14.776 0 0 0 7.042-1.582.931.931 0 0 1 .916 0A14.788 14.788 0 0 0 24.5 58a14.776 14.776 0 0 0 7.042-1.582A.93.93 0 0 1 32 56.3a1 1 0 0 0 0-2 2.937 2.937 0 0 0-1.447.383A12.764 12.764 0 0 1 24.5 56a12.764 12.764 0 0 1-6.053-1.32 2.941 2.941 0 0 0-2.894 0A12.764 12.764 0 0 1 9.5 56a13.927 13.927 0 0 1-5.326-.96A2.988 2.988 0 0 0 2 54.967v-3.173a.992.992 0 0 1 1.386-.916A15.94 15.94 0 0 0 9.5 52a14.776 14.776 0 0 0 7.042-1.582.931.931 0 0 1 .916 0A14.788 14.788 0 0 0 24.5 52c.54 0 1.069-.022 1.583-.065a1 1 0 0 0-.166-1.994c-.46.038-.934.059-1.417.059-.182 0-.361-.008-.541-.014l2.674-15.166 16.3-9.868a1 1 0 0 1 1.3.229l4.381 5.446a1 1 0 0 0 1.559-1.254l-4.381-5.446a3.011 3.011 0 0 0-3.891-.686l-16.37 9.908-1.257-.221a1 1 0 0 1-.342-1.842l20.8-12.5 15.26 18.858a1 1 0 0 1-.951 1.614l-1.257-.221-5.2-6.464a1 1 0 0 0-1.559 1.254l5.151 6.4L54.419 50a12.713 12.713 0 0 1-5.972-1.318 2.941 2.941 0 0 0-2.894 0 7.965 7.965 0 0 1-1.148.525l.614-3.48a3.005 3.005 0 0 0-2.434-3.476l-3.939-.694a3 3 0 0 0-3.476 2.433l-.9 5.087a7.623 7.623 0 0 1-.826-.4 2.939 2.939 0 0 0-2.893 0 7.9 7.9 0 0 1-.926.441 1 1 0 0 0 .744 1.856 9.466 9.466 0 0 0 1.17-.559.931.931 0 0 1 .916 0A14.788 14.788 0 0 0 39.5 52a14.776 14.776 0 0 0 7.042-1.582.931.931 0 0 1 .916 0A14.788 14.788 0 0 0 54.5 52a15.94 15.94 0 0 0 6.114-1.122.992.992 0 0 1 1.386.916v3.173a2.99 2.99 0 0 0-2.173.073A13.936 13.936 0 0 1 54.5 56a12.764 12.764 0 0 1-6.053-1.32 2.941 2.941 0 0 0-2.894 0A12.764 12.764 0 0 1 39.5 56a15.165 15.165 0 0 1-4.217-.566 1 1 0 0 0-.566 1.919A17.208 17.208 0 0 0 39.5 58a14.776 14.776 0 0 0 7.042-1.582.931.931 0 0 1 .916 0A14.788 14.788 0 0 0 54.5 58a15.94 15.94 0 0 0 6.114-1.122.992.992 0 0 1 1.386.916ZM42.275 49.765A16.353 16.353 0 0 1 39.5 50a15.941 15.941 0 0 1-3.3-.334l.94-5.331a1 1 0 0 1 1.159-.811l3.939.7a1 1 0 0 1 .811 1.158Z"
                fill="#000000" data-original="#000000"></path>
            <path
                d="M14.293 18.293a1 1 0 0 0 0 1.414l2 2a1 1 0 0 0 1.414-1.414l-2-2a1 1 0 0 0-1.414 0ZM58.293 27.707a1 1 0 0 0 1.414-1.414l-2-2a1 1 0 0 0-1.414 1.414ZM20.293 18.707a1 1 0 0 0 1.414-1.414l-1-1a1 1 0 0 0-1.414 1.414ZM20.293 24.293a1 1 0 0 0 0 1.414l1 1a1 1 0 0 0 1.414-1.414l-1-1a1 1 0 0 0-1.414 0ZM21 38a1 1 0 0 0 .707-1.707l-1-1a1 1 0 0 0-1.414 1.414l1 1A1 1 0 0 0 21 38ZM17.293 42.293a1 1 0 0 0 0 1.414l1 1a1 1 0 0 0 1.414-1.414l-1-1a1 1 0 0 0-1.414 0ZM8.293 16.293a1 1 0 0 0 0 1.414l2 2a1 1 0 0 0 1.414-1.414l-2-2a1 1 0 0 0-1.414 0ZM26.293 24.707a1 1 0 0 0 1.414-1.414l-3-3a1 1 0 0 0-1.414 1.414ZM25.293 15.707a1 1 0 0 0 1.414-1.414l-2-2a1 1 0 0 0-1.414 1.414ZM62 24a1 1 0 0 0 .707-1.707l-2-2a1 1 0 0 0-1.414 1.414l2 2A1 1 0 0 0 62 24ZM30.293 20.707a1 1 0 0 0 1.414-1.414l-1-1a1 1 0 0 0-1.414 1.414ZM54.457 21.871a1 1 0 1 0 1.414-1.414l-1-1a1 1 0 0 0-1.414 1.414ZM48.457 14.457a1 1 0 0 0 0 1.414l1 1a1 1 0 1 0 1.414-1.414l-1-1a1 1 0 0 0-1.414 0ZM38.293 13.707a1 1 0 0 0 1.414-1.414l-1-1a1 1 0 0 0-1.414 1.414ZM55 17a1 1 0 0 0 .707-1.707l-1-1a1 1 0 0 0-1.414 1.414l1 1A1 1 0 0 0 55 17ZM62.707 29.293a1 1 0 0 0-1.414 1.414l1 1a1 1 0 0 0 1.414-1.414ZM35.293 18.707a1 1 0 0 0 1.414-1.414l-3-3a1 1 0 0 0-1.414 1.414ZM59.293 14.293a1 1 0 0 0 0 1.414l3 3a1 1 0 0 0 1.414-1.414l-3-3a1 1 0 0 0-1.414 0ZM6 47a1 1 0 0 0 .707-1.707l-3-3a1 1 0 0 0-1.414 1.414l3 3A1 1 0 0 0 6 47Z"
                fill="#000000" data-original="#000000"></path>
        </g>
    </g>
</svg>