<svg xmlns="http://www.w3.org/2000/svg" version="1.1" xmlns:xlink="http://www.w3.org/1999/xlink"
    xmlns:svgjs="http://svgjs.com/svgjs" width="512" height="512" x="0" y="0" viewBox="0 0 60 60"
    style="enable-background:new 0 0 512 512" xml:space="preserve" class="">
    <g>
        <path fill="#ffd23f"
            d="M40.5 33.01c-.33 2.48-2.36 4.5-4.83 4.82-1.11.14-2.16-.04-3.08-.45-.62.89-1.38 1.62-2.59 1.62s-1.97-.73-2.59-1.62c-.92.41-1.97.59-3.08.45-2.48-.32-4.5-2.34-4.83-4.82-.32-2.41.88-4.57 2.77-5.66 1.55-.89 2.46-2.58 2.62-4.36l1.39-16.2 7.44.1 1.39 16.1c.16 1.78 1.07 3.47 2.62 4.36a5.638 5.638 0 0 1 2.77 5.66z"
            data-original="#ffd23f" class=""></path>
        <path
            d="M30 40c-1.38 0-2.3-.7-2.93-1.43-.92.28-1.9.37-2.87.25-2.91-.38-5.31-2.76-5.7-5.68-.36-2.7.92-5.31 3.26-6.66 1.19-.68 1.98-2.02 2.12-3.58l1.39-16.2c.04-.52.48-.91 1-.91h.01l7.44.1c.51.01.94.4.98.91l1.39 16.1c.14 1.56.93 2.9 2.12 3.58a6.638 6.638 0 0 1 3.26 6.66c-.39 2.91-2.78 5.3-5.69 5.68-.97.12-1.95.04-2.87-.25C32.3 39.3 31.38 40 30 40zm-2.59-3.62c.32 0 .63.15.82.43.6.85 1.09 1.19 1.77 1.19s1.17-.33 1.77-1.19a1 1 0 0 1 1.23-.34c.79.35 1.67.48 2.55.37 2.03-.26 3.69-1.93 3.96-3.96.25-1.89-.64-3.72-2.28-4.66-1.75-1.01-2.92-2.93-3.12-5.14L32.8 7.88l-5.6-.08-1.31 15.27c-.2 2.21-1.36 4.13-3.12 5.14a4.654 4.654 0 0 0-2.28 4.66c.27 2.03 1.94 3.7 3.97 3.96.87.11 1.75-.02 2.54-.37.13-.05.27-.08.41-.08z"
            fill="#000000" data-original="#000000" class="" opacity="1"></path>
        <path
            d="M32.59 38.38c-.2 0-.39-.06-.57-.18a.996.996 0 0 1-.25-1.39c.21-.31.41-.64.6-.96.74-1.25 1.58-2.66 3.27-2.66.55 0 1 .45 1 1s-.45 1-1 1c-.51 0-.93.64-1.55 1.68-.22.36-.44.73-.68 1.08-.19.28-.5.43-.82.43zM27.41 38.38c-.32 0-.63-.15-.82-.43-.24-.34-.46-.71-.67-1.07-.63-1.05-1.05-1.69-1.55-1.69-.55 0-1-.45-1-1s.45-1 1-1c1.68 0 2.53 1.42 3.27 2.66.19.32.39.65.6.96.31.45.2 1.08-.25 1.39-.18.12-.38.18-.58.18zM51.36 52.57c-.06 0-.13-.01-.2-.02-11.21-2.23-15.28-8.67-15.44-8.95-.21-.35-.19-.78.04-1.11.24-.33.65-.48 1.04-.38l5.02 1.21c.54.13.87.67.74 1.21s-.67.87-1.21.74l-1.93-.47c2.08 1.92 5.93 4.56 12.13 5.79.54.11.89.63.79 1.18-.1.47-.51.8-.98.8zM8.64 52.57c-.47 0-.88-.33-.98-.81-.11-.54.24-1.07.79-1.18 6.2-1.23 10.04-3.87 12.13-5.79l-1.93.47c-.53.13-1.08-.2-1.21-.74s.2-1.08.74-1.21l5.02-1.21c.39-.09.81.06 1.04.38s.26.77.04 1.11c-.17.27-4.23 6.72-15.44 8.95-.07.02-.13.03-.2.03z"
            fill="#000000" data-original="#000000" class="" opacity="1"></path>
        <circle cx="26.1" cy="51.47" r="1.74" fill="#04bb00" data-original="#e6e6e6" class="" opacity="1"></circle>
        <path
            d="M26.1 54.21c-1.51 0-2.74-1.23-2.74-2.74s1.23-2.74 2.74-2.74 2.74 1.23 2.74 2.74-1.23 2.74-2.74 2.74zm0-3.47c-.41 0-.74.33-.74.74s.33.74.74.74.74-.33.74-.74-.33-.74-.74-.74z"
            fill="#000000" data-original="#000000" class="" opacity="1"></path>
        <circle cx="30.88" cy="45.04" r="2.6" fill="#04bb00" data-original="#e6e6e6" class="" opacity="1"></circle>
        <path
            d="M30.88 48.64c-1.99 0-3.6-1.62-3.6-3.6s1.62-3.6 3.6-3.6c1.99 0 3.6 1.62 3.6 3.6s-1.61 3.6-3.6 3.6zm0-5.2c-.88 0-1.6.72-1.6 1.6s.72 1.6 1.6 1.6 1.6-.72 1.6-1.6-.71-1.6-1.6-1.6z"
            fill="#000000" data-original="#000000" class="" opacity="1"></path>
    </g>
</svg>