<svg xmlns="http://www.w3.org/2000/svg" version="1.1" xmlns:xlink="http://www.w3.org/1999/xlink"
    xmlns:svgjs="http://svgjs.com/svgjs" width="512" height="512" x="0" y="0" viewBox="0 0 512 512"
    style="enable-background:new 0 0 512 512" xml:space="preserve" class="">
    <g>
        <g fill="#80b6fc">
            <path
                d="M344.46 210.55a7.611 7.611 0 0 1-5.529-12.84l39.522-41.809c2.887-3.055 7.705-3.19 10.76-.302s3.19 7.705.302 10.76l-39.522 41.809a7.592 7.592 0 0 1-5.533 2.382z"
                fill="#80b6fc" data-original="#80b6fc"></path>
            <path
                d="m406.378 182.558-14.005 1.225c-9.422.824-17.729-6.146-18.553-15.568s6.146-17.729 15.568-18.553l14.005-1.225c9.422-.824 17.729 6.146 18.553 15.568.825 9.422-6.145 17.729-15.568 18.553zM82.534 233.466a7.584 7.584 0 0 1-4.533-1.501l-46.182-34.311a7.61 7.61 0 1 1 9.078-12.22l46.182 34.311a7.61 7.61 0 0 1-4.545 13.721z"
                fill="#80b6fc" data-original="#80b6fc"></path>
            <path
                d="m18.62 216.483 14.005-1.225c9.422-.824 16.393-9.131 15.568-18.553s-9.131-16.393-18.553-15.568l-14.005 1.225c-9.422.824-16.393 9.131-15.568 18.553s9.13 16.392 18.553 15.568z"
                fill="#80b6fc" data-original="#80b6fc"></path>
        </g>
        <path fill="#8c818f"
            d="m332.536 319.983 5.461 62.417c.575 6.577 6.374 11.443 12.951 10.867l40.704-3.561c6.577-.575 11.443-6.374 10.867-12.951l-5.461-62.417zM50.68 344.643l5.461 62.417c.575 6.577 6.374 11.443 12.951 10.867l40.704-3.561c6.577-.575 11.443-6.374 10.867-12.951l-5.461-62.417z"
            data-original="#8c818f"></path>
        <path fill="#80b6fc"
            d="M74.401 157.435 56.95 270.928l321.135-28.096-36.894-108.738c-8.741-25.761-33.953-42.215-61.053-39.844l-152.53 13.345c-27.1 2.371-49.072 22.953-53.207 49.84z"
            data-original="#80b6fc"></path>
        <path fill="#62a4fb"
            d="m315.826 136.313 20.845 61.436a53.343 53.343 0 0 1 11.673 4.869l19.918 11.265-27.072-79.788c-8.741-25.761-33.953-42.215-61.053-39.844l-25.364 2.219c27.1-2.372 52.312 14.082 61.053 39.843z"
            data-original="#62a4fb"></path>
        <path fill="#8c818f"
            d="M87.442 159.44a45.739 45.739 0 0 1 41.316-38.703s155.221-13.52 156.556-13.52c19.634 0 37.068 12.504 43.384 31.116l31.493 92.822L72.544 256.32z"
            data-original="#8c818f"></path>
        <path fill="#766d78"
            d="M328.697 138.333a45.824 45.824 0 0 0-32.845-29.887 58.907 58.907 0 0 1 19.974 27.867l20.845 61.436a53.294 53.294 0 0 1 11.673 4.869l2.677 1.514z"
            data-original="#766d78"></path>
        <path fill="#80b6fc"
            d="M373.709 200.399a53.308 53.308 0 0 0-30.89-6.704L83.147 216.413a53.309 53.309 0 0 0-29.256 11.966l-6.771 5.58-34.664 50.601 6.511 74.42c.58 6.626 6.421 11.527 13.046 10.947l135.056-11.816 58.3-16.363 59.45 6.061 135.013-11.812c6.626-.58 11.527-6.421 10.947-13.046l-6.511-74.42z"
            data-original="#80b6fc"></path>
        <path fill="#62a4fb"
            d="M417.897 313.87 30.078 347.8c-6.626.58-12.467-4.322-13.046-10.947l1.936 22.128c.58 6.626 6.421 11.527 13.046 10.947l135.056-11.816 58.3-16.363 59.45 6.061 135.013-11.812c6.626-.58 11.527-6.421 10.947-13.046l-1.936-22.128c.58 6.625-4.321 12.466-10.947 13.046z"
            data-original="#62a4fb"></path>
        <path fill="#62a4fb"
            d="m381.346 204.718-7.637-4.319a53.306 53.306 0 0 0-30.89-6.704l-7.306.639 1.159 3.415a53.343 53.343 0 0 1 11.673 4.869l32.019 18.109a36.554 36.554 0 0 1 18.42 28.632l6.633 75.811c.58 6.626-4.322 12.467-10.947 13.046l25.364-2.219c6.626-.58 11.527-6.421 10.947-13.046l-6.511-74.42z"
            data-original="#62a4fb"></path>
        <path fill="#8c818f"
            d="m281.36 325.38-15.88 24.12-79.05 6.91-19.92-21.01c-4.01-4.2-4.81-10.42-1.99-15.49l7.96-14.33c2.12-3.83 6-6.34 10.36-6.72l76.12-6.66c4.36-.38 8.61 1.42 11.37 4.82l10.33 12.73c3.65 4.5 3.94 10.77.7 15.63z"
            data-original="#8c818f"></path>
        <path fill="#766d78" d="m281.06 325.84-15.58 23.66-79.05 6.91-19.51-20.58z" data-original="#766d78"></path>
        <path fill="#ddebfd"
            d="m265.479 349.502 19.342-1.692 9.228-14.015c6.941-10.406 6.31-23.925-1.571-33.638l-10.325-12.727a28.369 28.369 0 0 0-24.522-10.395l-76.119 6.659a28.353 28.353 0 0 0-22.343 14.497l-7.957 14.325c-6.074 10.935-4.349 24.357 4.274 33.38l11.585 12.217 19.373-1.695-19.932-21.018a13.108 13.108 0 0 1-1.992-15.492l7.958-14.325c2.126-3.829 6-6.342 10.363-6.723l76.119-6.659a13.16 13.16 0 0 1 11.373 4.821l10.324 12.726c3.655 4.505 3.948 10.775.704 15.638z"
            data-original="#ddebfd"></path>
        <path fill="#ddebfd" d="m186.44 356.42-9.57.83 9.56-.84z" data-original="#ddebfd"></path>
        <g fill="#bed9fd">
            <path
                d="M294.049 333.795a28.517 28.517 0 0 0 4.063-9.445l-17.053 1.492-15.579 23.66 19.342-1.692zM166.918 335.828l-17.058 1.492a28.41 28.41 0 0 0 5.625 8.575l11.585 12.217 19.373-1.695z"
                fill="#bed9fd" data-original="#bed9fd"></path>
        </g>
        <path fill="#eec06b"
            d="m405.728 218.508-24.382-13.79-8.452 19.294a25.714 25.714 0 0 1-14.213 13.639l-15.395 6a14.975 14.975 0 0 0-9.48 15.258c.721 8.239 7.984 14.334 16.224 13.613l34.391-3.009c15.958-1.396 30.153-9.217 39.85-20.983l-.122-1.391a36.557 36.557 0 0 0-18.421-28.631z"
            data-original="#eec06b"></path>
        <path fill="#e9a52d"
            d="M419.606 232.427a36.559 36.559 0 0 0-7.576-9.39 37.368 37.368 0 0 0-6.302-4.529l-24.382-13.79-5.815 13.275c1.4 1.221 21.254 8.51 23.253 31.366l1.442 16.486a58.28 58.28 0 0 0 24.044-17.315c-.144-.774-.126-8.02-4.664-16.103z"
            data-original="#e9a52d"></path>
        <path fill="#eec06b"
            d="m55.344 298.305 34.391-3.009c8.239-.721 14.334-7.984 13.613-16.224a14.976 14.976 0 0 0-11.986-13.38l-16.203-3.236a25.71 25.71 0 0 1-16.365-10.963L47.12 233.959l-21.617 17.814a36.552 36.552 0 0 0-13.168 31.396l.122 1.391c11.591 9.904 26.929 15.141 42.887 13.745z"
            data-original="#eec06b"></path>
        <path fill="#e3e0e4"
            d="M475.287 376.749v30.175c0 6.104-4.948 11.052-11.052 11.052H332.636a4.983 4.983 0 0 1-4.983-4.983v-3.43c0-8.069 6.167-14.799 14.205-15.502l61.887-5.415a27.413 27.413 0 0 0 20.914-12.874l5.75-9.285a19.49 19.49 0 0 1 16.571-9.229h8.814c10.766-.001 19.493 8.726 19.493 19.491z"
            data-original="#e3e0e4"></path>
        <path fill="#c5bec6"
            d="M455.795 357.257h-8.814a19.48 19.48 0 0 0-7.337 1.436c7.132 2.897 12.167 9.884 12.167 18.056v30.175c0 6.104-4.948 11.052-11.052 11.052h23.476c6.104 0 11.052-4.948 11.052-11.052v-30.175c0-10.765-8.727-19.492-19.492-19.492z"
            data-original="#c5bec6"></path>
        <path fill="#e5936a"
            d="M470.833 321.949a7.612 7.612 0 0 1-4.828-13.5l25.858-21.18a7.612 7.612 0 1 1 9.647 11.776l-25.858 21.18a7.573 7.573 0 0 1-4.819 1.724zM453.501 296.148a7.61 7.61 0 0 1-7.331-9.674l4.951-17.606a7.61 7.61 0 0 1 9.388-5.267 7.61 7.61 0 0 1 5.266 9.388l-4.951 17.606a7.614 7.614 0 0 1-7.323 5.553zM504.388 343.01h-17.606a7.611 7.611 0 1 1 0-15.223h17.606a7.611 7.611 0 1 1 0 15.223z"
            data-original="#e5936a"></path>
    </g>
</svg>