<svg xmlns="http://www.w3.org/2000/svg" version="1.1" xmlns:xlink="http://www.w3.org/1999/xlink" width="512"
    height="512" x="0" y="0" viewBox="0 0 24 24" style="enable-background:new 0 0 512 512" xml:space="preserve"
    class="">
    <g>
        <path
            d="M24 23a1 1 0 0 1-1 1H1a1 1 0 1 1 0-2h.873l1.469-4h17.316l1.469 4H23a1 1 0 0 1 1 1Zm-5.913-12H5.913l-1.837 5h15.847l-1.837-5Zm-.735-2-2.579-7.021C14.341.805 13.252.045 12 .045s-2.341.76-2.773 1.936l-2.579 7.02h10.704Z"
            fill="currentColor" opacity="1" data-original="currentColor"></path>
    </g>
</svg>