<svg xmlns="http://www.w3.org/2000/svg" version="1.1" xmlns:xlink="http://www.w3.org/1999/xlink" width="512"
    height="512" x="0" y="0" viewBox="0 0 24 24" style="enable-background:new 0 0 512 512" xml:space="preserve">
    <g>
        <path
            d="M22.5 0A1.5 1.5 0 0 0 21 1.5V2h-1v-.5a1.5 1.5 0 1 0-3 0V2h-3.5v-.5a1.5 1.5 0 1 0-3 0V2H7v-.5a1.5 1.5 0 1 0-3 0V2H3v-.5a1.5 1.5 0 1 0-3 0v1C0 3.878 1.122 5 2.5 5h1.379l6.621 6.621V22.5a1.5 1.5 0 1 0 3 0V11.621L20.121 5H21.5C22.878 5 24 3.878 24 2.5v-1A1.5 1.5 0 0 0 22.5 0ZM8.121 5H10.5v2.379L8.121 5ZM13.5 5h2.379L13.5 7.379V5Z"
            fill="currentColor" opacity="1" data-original="currentColor"></path>
    </g>
</svg>