<svg xmlns="http://www.w3.org/2000/svg" version="1.1" xmlns:xlink="http://www.w3.org/1999/xlink"
    xmlns:svgjs="http://svgjs.com/svgjs" width="512" height="512" x="0" y="0" viewBox="0 0 512 512"
    style="enable-background:new 0 0 512 512" xml:space="preserve" class="">
    <g>
        <path fill="#ec407f"
            d="M191.875 219.063c0 55.726 45.337 101.063 101.063 101.063l21.213-100.416L292.938 118c-55.726 0-101.063 45.337-101.063 101.063z"
            data-original="#ec407f"></path>
        <path fill="#d2397b"
            d="M292.938 118v202.125c55.726 0 101.063-45.336 101.063-101.063C394 163.337 348.663 118 292.938 118z"
            data-original="#d2397b"></path>
        <path fill="#ecf2fe"
            d="m274.856 179.769-21.212 21.213 18.081 18.081-18.081 18.081 21.212 21.212 18.082-18.08 13.582-21.213-13.582-21.213z"
            data-original="#ecf2fe"></path>
        <path fill="#ac9ef9" d="M512 219.063h-30C482 114.813 397.187 30 292.938 30V0C413.729 0 512 98.271 512 219.063z"
            data-original="#ac9ef9"></path>
        <path fill="#b1c4fa"
            d="M453 219.063h-30C423 147.346 364.654 89 292.938 89V59C381.196 59 453 130.804 453 219.063z"
            data-original="#b1c4fa"></path>
        <path fill="#d8e3fc"
            d="M458.976 512c-22.481 0-40.771-18.289-40.771-40.77v-1.305c0-5.938-4.831-10.77-10.77-10.77h-1.377c-5.938 0-10.77 4.831-10.77 10.77v1.277c0 22.48-18.289 40.77-40.77 40.77H220.26l36.015-30h98.244c5.938 0 10.77-4.832 10.77-10.77v-1.277c0-22.48 18.289-40.77 40.77-40.77h1.377c22.48 0 40.77 18.289 40.77 40.77v1.305c0 5.938 4.832 10.77 10.771 10.77s10.77-4.831 10.77-10.77v-1.305c0-22.48 18.289-40.77 40.77-40.77H512v30h-1.485c-5.938 0-10.77 4.831-10.77 10.77v1.305c0 22.481-18.289 40.77-40.769 40.77z"
            data-original="#d8e3fc"></path>
        <path fill="#fde04c"
            d="m121.181 326.371 11.746-11.746-33.35-59.698-61.565-35.217-13.957 13.956C8.542 249.178 0 269.802 0 291.739s8.542 42.562 24.055 58.073l69.066 69.066 53.566-1.324 6.718-58.96z"
            data-original="#fde04c"></path>
        <path fill="#facd48"
            d="m197.375 379.073-11.746 11.746-32.224-32.224-60.284 60.284 69.066 69.066C177.699 503.456 198.323 512 220.26 512s42.562-8.544 58.073-24.055l13.957-13.957-34.858-46.632zM37.983 219.7l34.225-34.225 94.9 94.9-34.224 34.225z"
            data-original="#facd48"></path>
        <path fill="#f5a941" d="m197.312 379.06 34.226-34.225 94.9 94.901-34.224 34.225z" data-original="#f5a941">
        </path>
        <path fill="#d8e3fc"
            d="m332.231 200.982-21.212-21.213-18.081 18.081v42.426l18.081 18.08 21.212-21.212-18.081-18.081z"
            data-original="#d8e3fc"></path>
    </g>
</svg>